<svg xmlns="http://www.w3.org/2000/svg" xmlns:xlink="http://www.w3.org/1999/xlink" data-name="9" viewBox="0 0 4680 3120"><defs><linearGradient id="a" x1="4217.328" x2="3303.663" y1="471.27" y2="1512.622" gradientUnits="userSpaceOnUse"><stop offset="0" stop-color="#fff"/><stop offset=".141" stop-color="#fbfbfb"/><stop offset=".269" stop-color="#f0f0f0"/><stop offset=".391" stop-color="#dedede"/><stop offset=".511" stop-color="#c4c4c4"/><stop offset=".627" stop-color="#a3a3a3"/><stop offset=".742" stop-color="#7a7a7a"/><stop offset=".856" stop-color="#494949"/><stop offset=".966" stop-color="#121212"/><stop offset=".999"/></linearGradient><linearGradient id="g" x1="4035.825" x2="3122.161" y1="312.022" y2="1353.373" xlink:href="#a"/><linearGradient id="d" x1="3874.527" x2="2960.865" y1="170.501" y2="1211.849" xlink:href="#a"/><linearGradient id="f" x1="3732.495" x2="2818.829" y1="45.886" y2="1087.239" xlink:href="#a"/><linearGradient id="n" x1="4348.766" x2="3435.099" y1="586.591" y2="1627.945" xlink:href="#a"/><linearGradient id="b" x1="4217.328" x2="3303.663" y1="471.27" y2="1512.622" gradientUnits="userSpaceOnUse"><stop offset="0" stop-color="#fff"/><stop offset=".949" stop-color="#fff"/><stop offset=".999" stop-color="#fff"/></linearGradient><linearGradient id="q" x1="4035.825" x2="3122.161" y1="312.022" y2="1353.373" xlink:href="#b"/><linearGradient id="r" x1="3874.527" x2="2960.865" y1="170.501" y2="1211.849" xlink:href="#b"/><linearGradient id="m" x1="3732.495" x2="2818.829" y1="45.886" y2="1087.239" xlink:href="#b"/><linearGradient id="u" x1="4348.766" x2="3435.099" y1="586.591" y2="1627.945" xlink:href="#b"/><filter id="c" width="370.509" height="370.509" x="3391.41" y="946.145" color-interpolation-filters="sRGB" filterUnits="userSpaceOnUse"><feFlood flood-color="#fff" result="bg"/><feBlend in="SourceGraphic" in2="bg"/></filter><filter id="e" width="746.864" height="746.863" x="3015.055" y="569.79" color-interpolation-filters="sRGB" filterUnits="userSpaceOnUse"><feFlood flood-color="#fff" result="bg"/><feBlend in="SourceGraphic" in2="bg"/></filter><filter id="h" width="965.563" height="825.424" x="2748.237" y="491.229" color-interpolation-filters="sRGB" filterUnits="userSpaceOnUse"><feFlood flood-color="#fff" result="bg"/><feBlend in="SourceGraphic" in2="bg"/></filter><filter id="j" width="738.348" height="738.35" x="2682.626" y="491.229" color-interpolation-filters="sRGB" filterUnits="userSpaceOnUse"><feFlood flood-color="#fff" result="bg"/><feBlend in="SourceGraphic" in2="bg"/></filter><filter id="l" width="93.374" height="93.374" x="3668.545" y="1223.28" color-interpolation-filters="sRGB" filterUnits="userSpaceOnUse"><feFlood flood-color="#fff" result="bg"/><feBlend in="SourceGraphic" in2="bg"/></filter><mask id="i" width="370.509" height="370.509" x="3391.41" y="946.145" maskUnits="userSpaceOnUse"><g filter="url(#c)" mask="url(#d)"><path style="mix-blend-mode:multiply" fill="url(#a)" fill-rule="evenodd" d="M3761.919 946.145v140.138l-230.371 230.371H3391.41l333.39-333.391 36.835-36.835.284-.283z"/></g></mask><mask id="p" width="746.864" height="746.863" x="3015.055" y="569.79" maskUnits="userSpaceOnUse"><g filter="url(#e)" mask="url(#f)"><path style="mix-blend-mode:multiply" fill="url(#g)" fill-rule="evenodd" d="M3761.919 569.79V783l-.284.284-36.835 36.835-70.421 70.421-93.413 93.413-15.919 15.919-316.782 316.782h-213.21l159.015-159.015 37.118-37.119 151.622-151.622 55.598-55.597 16.877-16.877 91.459-91.459L3724.8 606.909l36.835-36.835.284-.284z"/></g></mask><mask id="k" width="965.563" height="825.424" x="2748.237" y="491.229" maskUnits="userSpaceOnUse"><g filter="url(#h)" mask="url(#i)"><path style="mix-blend-mode:multiply" fill="url(#d)" fill-rule="evenodd" d="M3573.658 491.23h140.141l-825.422 825.424h-140.14l825.421-825.424z"/></g></mask><mask id="s" width="738.348" height="738.35" x="2682.626" y="491.229" maskUnits="userSpaceOnUse"><g filter="url(#j)" mask="url(#k)"><path style="mix-blend-mode:multiply" fill="url(#f)" fill-rule="evenodd" d="M3343.584 491.23h77.391l-738.349 738.349v-77.391l660.958-660.958z"/></g></mask><mask id="t" width="93.374" height="93.374" x="3668.545" y="1223.28" maskUnits="userSpaceOnUse"><g filter="url(#l)" mask="url(#m)"><path style="mix-blend-mode:multiply" fill="url(#n)" fill-rule="evenodd" d="M3761.919 1223.279v77.394l-.284.283-15.698 15.698h-77.392l56.255-56.256 36.835-36.835.284-.284z"/></g></mask><clipPath id="o"><path fill="#f5f5f5" d="M1534.14 547.608h332.253v436.728H1534.14z"/></clipPath></defs><path fill="#e1e1e1" d="M1117.686 1250.704c-25.253-3.945-51.972-7.706-75.498 3.003-21.12 9.615-36.484 29.462-53.09 46.588-16.606 17.125-37.532 32.835-60.34 30.57-24.059-2.393-43.698-26.148-46.907-52.157-3.21-26.008 8.106-52.571 25.984-70.213 17.877-17.64 41.553-27.146 65.433-31.103 23.88-3.956 48.205-2.747 72.33-1.325m-76.875 280.21c-17.909 1.583-36.204 3.786-52.325 12.068s-29.886 23.858-31.664 42.5c-1.78 18.644 11.884 38.84 29.854 39.146 11.091.188 21.198-6.613 29.353-14.448 8.945-8.589 16.994-18.298 26.646-26.062 10.952-8.807 23.52-12.66 36.398-17.388 13.947-5.118 28.7-13.443 33.087-28.164"/><path fill="#f5f5f5" d="M1205.086 1628.017c2.219-57.77-20.137-116.829-61.987-154.776s-102.927-52.728-155.556-34.496c-21.529 7.457-51.252 15.792-77.771 33.518 76.852-10.017 144.344 54.516 156.713 63.628 7.827 5.769 14.85 12.62 22.041 19.227 30.3 27.838 80.514 53.906 116.56 72.899m40.211-135.635c-4.604-27.589 3.357-55.508 8.556-82.979 10.6-56.004 9.196-116.562-16.268-167.103-25.464-50.543-78.672-88.194-133.122-82.122-19.68 2.194-38.455 9.714-57.962 13.2-18.378 3.282-37.153 2.945-55.797 2.622-8.295-.142-19.498 2.304-25.615 6.333 53.359 13.649 83.405 63.018 135.484 91.071 53.45 28.79 60.922 132.026 144.724 218.978m43.981-67.516c1.981-29.427 19.962-55.115 40.41-75.504 20.449-20.389 44.06-37.386 62.55-59.716 11.135-13.446 20.204-28.585 29.225-43.654l39.722-66.358c8.368-13.98 16.753-27.99 23.712-42.788 7.656-16.283 13.53-33.41 19.016-50.62q8.15-25.572 15.202-51.506c3.605-13.26 7.017-26.76 7.125-40.544.108-13.784-3.414-28.07-12.205-38.367-11.668-13.669-31-18.154-48.304-15.105-17.307 3.047-32.921 12.6-47.125 23.345-8.76 6.627-17.216 13.836-24.11 22.533-18.496 23.342-23.906 54.638-34.073 82.997-18.269 50.949-53.026 94.445-68.642 146.344-5.02 16.686-7.968 33.97-10.475 51.261-5.3 36.529-11.26 117.68 7.972 157.682"/><path fill="#e1e1e1" d="M1272.432 1829.537a2.329 2.329 0 01-2.332-2.262c-4.867-166.27 7.664-460.372 62.13-589.117 9.468-22.38 20.707-44.248 31.577-65.398l88.947-173.073a2.329 2.329 0 114.142 2.128l-88.946 173.073c-10.83 21.075-22.03 42.866-31.43 65.085-54.176 128.059-66.619 421.304-61.764 587.166a2.328 2.328 0 01-2.26 2.396 1.125 1.125 0 01-.064.002zm-19.472-65.894l-.113-.002a2.33 2.33 0 01-2.221-2.433 1569.627 1569.627 0 00-18.48-321.567c-12.81-79.152-36.452-177.337-106.15-234.499-17.21-14.114-43.804-30.281-72.792-27.168a2.33 2.33 0 01-.497-4.632c30.573-3.283 58.345 13.519 76.243 28.198 70.907 58.152 94.853 157.394 107.793 237.357a1574.256 1574.256 0 0118.537 322.523 2.33 2.33 0 01-2.32 2.223z"/><path fill="#e1e1e1" d="M1223.473 1855.188h-.02a2.33 2.33 0 01-2.315-2.344c.4-60.599.814-123.26-10.571-183.732-12.679-67.329-39.338-123.29-77.092-161.834-44.771-45.708-106.002-66.005-159.785-52.963a2.33 2.33 0 01-1.098-4.528c55.38-13.421 118.299 7.36 164.21 54.23 38.401 39.206 65.492 95.997 78.342 164.234 11.47 60.914 11.054 123.804 10.652 184.623a2.33 2.33 0 01-2.323 2.314z"/><path fill="#f5f5f5" d="M1169.134 2044.625l198.007-.461a24.46 24.46 0 0024.13-20.82l38.171-253.574a24.46 24.46 0 00-24.245-28.101l-275.529.64a24.46 24.46 0 00-24.113 28.215l39.351 253.394a24.46 24.46 0 0024.228 20.707z"/><path fill="#e1e1e1" d="M1114.439 1827.728l-2.731-17.587 311.766-.726-2.65 17.6-306.385.713z"/><path fill="#e1e1e1" d="M1446.538 2331.8a13.976 13.976 0 01-13.831-11.876l-74.11-487.083a13.975 13.975 0 1127.632-4.204l74.11 487.083a13.972 13.972 0 01-11.715 15.918 14.133 14.133 0 01-2.086.162zm-353.903.824a14.15 14.15 0 01-2.087-.152 13.972 13.972 0 01-11.788-15.863l71.842-487.423a13.975 13.975 0 0127.651 4.075l-71.842 487.423a13.979 13.979 0 01-13.776 11.94zm176.952-.414a13.976 13.976 0 01-14.008-13.943l-1.134-487.253a13.975 13.975 0 0127.95-.065l1.134 487.253a13.976 13.976 0 01-13.942 14.007z"/><ellipse cx="2329.573" cy="2449.082" fill="#f5f5f5" opacity=".57" rx="739.809" ry="201.372"/><path fill="#e1e1e1" d="M948.641 2303.808h2837.055v29.13H948.641z"/><path fill="#ececec" d="M1499.395 501.938h401.742v528.068h-401.742z"/><path fill="#f5f5f5" d="M1534.14 547.608h332.253v436.728H1534.14z"/><g clip-path="url(#o)" fill-rule="evenodd"><path fill="#ececec" d="M1748.21 713.975c-171.483 164.041-153.204 315.12-130.193 374.946-17.471-6.056-35.164-120.313 2.29-211.005 21.529-52.13 98.068-156.492 127.903-163.941zm17.484-6.747c.178-21.922 15.08-61.106 99.515-60.124-38.41 75.197-80.036 70.157-99.515 60.124zm-52.678 15.37c-18.145-12.298-42.494-46.427 5.137-116.154 41.282 73.658 14.016 105.508-5.137 116.153z"/><path fill="#ececec" d="M1727.214 769.797c7.649-20.543 35.03-52.285 114.064-22.543-61.774 57.57-99.178 38.629-114.064 22.543zm-74.096 25.41c-21.554-3.989-57.547-25.483-41.882-108.46 67.36 50.91 55.158 91.025 41.881 108.46zm13.057 47.45c6.403-20.962 31.843-54.289 112.509-29.32-58.22 61.158-96.69 44.487-112.509 29.32zm-65.793 33.138c-21.555-3.99-57.545-25.484-41.885-108.46 67.365 50.915 55.161 91.024 41.885 108.46zm31.259 62.51c.613-21.913 16.294-60.79 100.694-58.126-39.903 74.417-81.42 68.553-100.694 58.127zm-50.352 43.594c-21.876 1.426-62.042-10.578-67.224-94.862 77.798 32.824 75.81 74.702 67.224 94.862zm35.291 43.62c-.722-21.908 12.562-61.671 96.969-64.155-35.296 76.71-77.091 73.384-96.969 64.155zm-23.116 57.756c-21.23 5.44-62.926 1.065-83.592-80.806 82.521 17.88 88.306 59.401 83.592 80.806z"/><path fill="#fafafa" d="M1594.106 729.462c-44.293 171.436 26.679 260.072 64.783 288.974-13.459 3.02-69.584-62.49-81.474-134.731-6.833-41.521.695-137.793 16.69-154.243zm8.435-11.153c-8.501-13.97-14.449-44.678 39.485-77.241 5.194 62.789-23.184 75.953-39.485 77.24zm-27.368 30.453c-16.341-.668-45.199-12.743-42.39-75.684 55.133 30.49 50.353 61.407 42.39 75.684z"/><path fill="#fafafa" d="M1602.73 773.118c-3.225-16.034 1.666-46.928 63.479-59.122-16.551 60.788-47.72 63.474-63.479 59.122zm-37.01 45.237c-15.237 5.94-46.513 6.451-69.19-52.33 62.734 5.816 70.757 36.054 69.19 52.33zm26.931 24.963c-4.177-15.813-1.141-46.944 59.833-62.813-12.891 61.672-43.84 66.214-59.833 62.813zm-28.708 46.873c-15.234 5.945-46.512 6.457-69.189-52.329 62.734 5.82 70.757 36.056 69.19 52.329zm44.394 27.364c-8.223-14.139-13.559-44.96 41.017-76.438 3.94 62.878-24.696 75.47-41.017 76.438zm-14.8 47.438c-13.314 9.5-43.507 17.671-79.918-33.747 62.24-9.759 77.44 17.583 79.917 33.747zm39.525 13.793c-9.07-13.608-16.272-44.05 36.283-78.797 7.764 62.522-20.05 76.84-36.283 78.797zm8.036 45.715c-11.327 11.796-39.49 25.408-84.775-18.397 59.365-21.092 79.355 2.97 84.775 18.397z"/></g><path fill="#e8e8e8" d="M1533.897 1763.666h1160.72v292.992h-1160.72z"/><path fill="#f2f2f2" d="M1861.51 1763.663h833.107v292.992H1861.51z"/><path fill="#f2f2f2" d="M1699.858 1819.06l161.657-16.308 214.116 27.956H1861.51l-161.652-11.648z"/><path fill="#e8e8e8" d="M1787.53 1934.768l161.658-16.308 214.115 27.956h-214.12l-161.653-11.648zm-150.894 51.252l161.658-16.308 214.115 27.956h-214.12l-161.653-11.648zm1057.981-135.316v25.685h-17.436l-161.647-11.638 161.647-16.32 17.436 2.273z"/><path fill="#f5f5f5" d="M1533.897 1763.666s242.875 108.201 253.633 171.102c0 0 496.84 2.632 594.348 9.155 0 0-81.771-129.923-142.441-145.449s-705.54-34.808-705.54-34.808z"/><path fill="#e8e8e8" d="M1697.701 1489.964h1160.72v292.989h-1160.72z"/><path fill="#f2f2f2" d="M2025.314 1489.956h833.107v292.989h-833.107z"/><path fill="#f2f2f2" d="M1863.664 1545.354l161.658-16.308 214.115 27.956h-214.121l-161.652-11.648z"/><path fill="#e8e8e8" d="M1951.337 1661.062l161.658-16.308 214.115 27.956h-214.121l-161.652-11.648zm-150.894 51.252l161.658-16.308 214.115 27.956h-214.121l-161.652-11.648zm1057.98-135.316v25.685h-17.436l-161.647-11.638 161.647-16.32 17.436 2.273zm-1151.18 461.316h1160.72v292.989h-1160.72z"/><path fill="#f2f2f2" d="M2034.856 2038.306h833.107v292.997h-833.107z"/><path fill="#f2f2f2" d="M1873.204 2093.705l161.657-16.307 214.116 27.955h-214.121l-161.652-11.648z"/><path fill="#e8e8e8" d="M1960.876 2209.413l161.658-16.307 214.115 27.955h-214.12l-161.653-11.648zm-150.893 51.252l161.657-16.307 214.115 27.955h-214.12l-161.652-11.648zm1057.98-135.316v25.686h-17.436l-161.647-11.638 161.647-16.321 17.436 2.273z"/><g opacity=".74"><path fill="#e1e1e1" d="M3708.891 2317.792h-492.288a4.628 4.628 0 01-4.628-4.628v-696.523a4.628 4.628 0 014.628-4.629h492.288a4.628 4.628 0 014.628 4.629v696.523a4.628 4.628 0 01-4.628 4.628z"/><path fill="#d3d2d1" d="M3511.839 1645.62h-98.185v-33.609h98.185zm0 265.135h-98.185v-33.609h98.185zm0 237.125h-98.185v-33.607h98.185z"/><path fill="none" stroke="#b09b7c" stroke-miterlimit="10" stroke-width=".454" d="M3713.519 1877.145h-501.545m501.545 237.129h-501.545"/></g><g opacity=".63"><path fill="#e1e1e1" d="M2682.567 452.368h1116.126v903.148H2682.567z"/><path fill="#ececec" d="M2682.567 491.229h1079.009v825.424H2682.567z"/><path fill="#fafafa" fill-rule="evenodd" d="M2776.863 932.062h226.226c49.035 0 49.035 67.809 0 67.809h-226.226c-49.035 0-49.035-67.809 0-67.809z"/><path fill="#fafafa" fill-rule="evenodd" d="M3032.312 891.149a54.361 54.361 0 11-54.362 54.362 54.361 54.361 0 0154.362-54.362zm-181.359-37.44a69.119 69.119 0 11-69.118 69.119 69.12 69.12 0 0169.118-69.12z"/><path fill="#fafafa" fill-rule="evenodd" d="M2947.957 799.222a83.584 83.584 0 11-83.584 83.585 83.585 83.585 0 0183.584-83.585zm625.215-130.44h188.404v67.807h-188.404c-49.036 0-49.036-67.807 0-67.807z"/><path fill="#fafafa" fill-rule="evenodd" d="M3647.261 590.427a69.12 69.12 0 11-69.118 69.12 69.12 69.12 0 0169.118-69.12z"/><path fill="#fafafa" fill-rule="evenodd" d="M3744.266 535.94a83.944 83.944 0 0117.31 1.8v163.57a83.59 83.59 0 11-17.31-165.37z"/><g opacity=".31"><g mask="url(#i)"><path fill="url(#b)" fill-rule="evenodd" d="M3761.919 946.145v140.138l-230.371 230.371H3391.41l333.39-333.391 36.835-36.835.284-.283z"/></g><g mask="url(#p)"><path fill="url(#q)" fill-rule="evenodd" d="M3761.919 569.79V783l-.284.284-36.835 36.835-70.421 70.421-93.413 93.413-15.919 15.919-316.782 316.782h-213.21l159.015-159.015 37.118-37.119 151.622-151.622 55.598-55.597 16.877-16.877 91.459-91.459L3724.8 606.909l36.835-36.835.284-.284z"/></g><g mask="url(#k)"><path fill="url(#r)" fill-rule="evenodd" d="M3573.658 491.23h140.141l-825.422 825.424h-140.14l825.421-825.424z"/></g><g mask="url(#s)"><path fill="url(#m)" fill-rule="evenodd" d="M3343.584 491.23h77.391l-738.349 738.349v-77.391l660.958-660.958z"/></g><g mask="url(#t)"><path fill="url(#u)" fill-rule="evenodd" d="M3761.919 1223.279v77.394l-.284.283-15.698 15.698h-77.392l56.255-56.256 36.835-36.835.284-.284z"/></g></g><path fill="#e1e1e1" d="M3233.01 452.368h37.117v903.148h-37.117zm-550.727 0h37.118v903.151h-37.118z"/></g><path fill="#232526" d="M2674.332 1806.776c-15.965 30.958-35.54 60.57-55.517 88.818-47.788 67.572-94.332 134.236-122.538 212.628-6 16.675-36.264 223.081-34.814 223.081h-406.476a4937.915 4937.915 0 0014.19-58.994q1.718-7.316 3.445-14.77a4468.794 4468.794 0 008.912-39.428q2.344-10.593 4.656-21.342c6.53-30.336 12.783-61.269 18.29-91.416q1.694-9.268 3.282-18.438 2.675-15.344 5.024-30.262 1.46-9.28 2.774-18.347c4.943-34.116 8.25-65.565 9.067-91.89.05-1.703.099-3.38.123-5.034.025-1.203.041-2.397.057-3.576.279-28.715-2.806-50.426-10.532-61.498-12.316-17.66-28.11-51.268-44.86-91.71-.23-.549-.45-1.097-.68-1.654q-3.891-9.414-7.831-19.28a2534.156 2534.156 0 01-15.492-39.705q-3.387-8.924-6.775-17.963a3842.267 3842.267 0 01-13.323-36.13c-.434-1.194-.86-2.38-1.293-3.567l-4.378-12.128c-13.052-36.342-25.123-71.293-34.877-100.09a8506.484 8506.484 0 01-6.825-20.255 5326.25 5326.25 0 01-14.518-43.862s61.891 0 61.891-.008h205.804l.024.008 18.159 6.636 212.395 61.383c37.494 10.84 82.53 14.897 115.535 36.188 7.688 4.96 134.098 90.913 134.134 78.156-.131 47.296-15.208 92.13-37.033 134.449z" opacity=".18"/><path fill="#bd313a" fill-rule="evenodd" d="M3543.042 1340.758c-110.563 105.765-98.778 203.174-83.942 241.746-11.264-3.905-22.671-77.572 1.478-136.045 13.88-33.611 63.228-100.899 82.464-105.701zm11.273-4.35c.115-14.134 9.723-39.398 64.162-38.765-24.764 48.483-51.603 45.234-64.162 38.765zm-33.964 9.91c-11.699-7.93-27.398-29.934 3.312-74.89 26.617 47.49 9.037 68.025-3.312 74.89z"/><path fill="#bd313a" fill-rule="evenodd" d="M3529.505 1376.75c4.932-13.246 22.586-33.712 73.543-14.536-39.829 37.119-63.945 24.906-73.543 14.535zm-47.773 16.382c-13.897-2.572-37.103-16.43-27.004-69.929 43.431 32.824 35.563 58.688 27.004 69.93zm8.419 30.593c4.128-13.515 20.53-35.002 72.54-18.903-37.538 39.431-62.341 28.682-72.54 18.903zm-42.42 21.366c-13.898-2.572-37.103-16.43-27.006-69.93 43.434 32.828 35.565 58.688 27.005 69.93zm20.154 40.304c.395-14.129 10.505-39.195 64.922-37.478-25.727 47.98-52.495 44.2-64.922 37.478zm-32.465 28.107c-14.104.919-40.001-6.82-43.342-61.162 50.16 21.162 48.878 48.163 43.342 61.162zm22.754 28.123c-.465-14.125 8.1-39.762 62.52-41.364-22.756 49.459-49.704 47.315-62.52 41.364zm-14.904 37.238c-13.688 3.508-40.571.687-53.895-52.1 53.205 11.529 56.935 38.3 53.895 52.1z"/><path fill="#ed4343" fill-rule="evenodd" d="M3443.684 1350.743c-28.558 110.533 17.2 167.68 41.769 186.316-8.678 1.947-44.865-40.29-52.53-86.868-4.406-26.77.448-88.842 10.76-99.448zm5.439-7.19c-5.482-9.008-9.316-28.807 25.457-49.802 3.35 40.483-14.947 48.97-25.457 49.801zm-17.646 19.634c-10.536-.431-29.142-8.216-27.331-48.798 35.547 19.66 32.465 39.593 27.331 48.798z"/><path fill="#ed4343" fill-rule="evenodd" d="M3449.244 1378.89c-2.079-10.337 1.074-30.256 40.928-38.119-10.671 39.193-30.767 40.925-40.928 38.12zm-23.861 29.167c-9.825 3.83-29.99 4.159-44.611-33.74 40.448 3.75 45.62 23.246 44.61 33.74zm17.363 16.094c-2.693-10.195-.736-30.267 38.577-40.498-8.311 39.763-28.265 42.691-38.577 40.498zm-18.51 30.222c-9.821 3.833-29.988 4.163-44.609-33.739 40.448 3.752 45.62 23.247 44.61 33.739zm28.623 17.643c-5.302-9.116-8.742-28.988 26.446-49.284 2.54 40.541-15.922 48.66-26.446 49.284zm-9.542 30.585c-8.584 6.125-28.051 11.394-51.527-21.758 40.13-6.292 49.93 11.337 51.527 21.758zm25.484 8.893c-5.848-8.774-10.491-28.401 23.393-50.804 5.006 40.31-12.927 49.542-23.393 50.804zm5.18 29.475c-7.302 7.606-25.46 16.382-54.658-11.861 38.276-13.6 51.165 1.914 54.659 11.861z"/><path fill="#243d42" fill-rule="evenodd" d="M3363.764 1472.024c-12.81 50.134-1.104 105.904 29.595 139.971h123.266c30.7-34.067 42.405-89.837 29.595-139.97z"/><path fill="#385a64" fill-rule="evenodd" d="M3549.008 1473.344h-185.17c-3.984 0-7.245-3.768-7.245-8.376v-.004c0-4.609 3.261-8.378 7.245-8.378h185.17c3.983 0 7.244 3.77 7.244 8.378v.004c0 4.608-3.26 8.376-7.244 8.376z"/><path fill="#fafafa" d="M1576.4 1329.131s-111.375 328.124-282.606 367.488c0 0 317.259 101.355 348.503 90.865 0 0 263.528-310.212 241.524-386.054zm228.845 723.014s209.418 127.767 210.087 252.153c0 0 119.161-203.464 116.755-226.673 0 0-173.475-230.1-229.276-226.649z"/><path fill="#b2581b" d="M2283.17 2426.165a13.03 13.03 0 00-8.287 9.02c-5.09 19.605-18.511 76.053-8.048 89.306 12.719 16.11 77.528 107.058 102.502 125.37 20.916 15.337 95.888 22.77 134.17 14.076a13.007 13.007 0 007.377-20.557c-13.423-17.664-39.743-50.953-76.035-90.547-47.563-51.89-54.597-95.07-50.977-142.676a13.04 13.04 0 00-17.313-13.34zm97.341-368.036a13.03 13.03 0 00-12.035 2.286c-15.79 12.686-60.264 49.948-59.786 66.826.581 20.517-1.748 132.171 7.348 161.773 7.618 24.792 63.315 75.526 99.212 91.414a13.007 13.007 0 0018.195-12.083c-.218-22.184-1.45-64.603-6.916-118.035-7.162-70.025 12.983-108.86 44.315-144.884a13.04 13.04 0 00-5.92-21.04z"/><path fill="#34545b" d="M2507.214 2077.813c-31.717 37.161-56.47 64.835-65.09 74.398-2.135 2.377-3.282 3.638-3.282 3.638l-3.235-2.836-15.041-13.17-52.79-46.238-16.27-14.252s3.876-7.492 10.548-20.135c16.84-31.875 51.489-96.52 86.785-156.506v-.008c4.878-8.29 9.77-16.496 14.627-24.507q2.073-3.409 4.128-6.769a1572.103 1572.103 0 0113.123-21.065c.267-.414.535-.836.811-1.282.369-.6.745-1.193 1.146-1.777 16-25.052 30.92-46.371 42.933-60.012l.15-.17s-.22-.118-.642-.336c-4.721-2.504-35.187-18.833-75.867-44.641a1355.077 1355.077 0 01-27.425-17.867 1209.024 1209.024 0 01-35.856-24.89c-.113-.075-.227-.159-.34-.242-46.628-33.657-96.029-74.627-132.956-118.625-6.933-8.264-13.43-16.635-19.37-25.081-.346-.471-.675-.95-1.004-1.422a219.942 219.942 0 0046.082-23.59c7.03-4.79 14.13-9.16 21.23-13.139a306.25 306.25 0 0168.88-28.065 343.381 343.381 0 0140.177-8.45c42.629-6.337 74.782-3.194 81.655-3.09 1.604.021-2.087-8.296-8.181-21.63a3202.655 3202.655 0 0155.563 50.467c87.353 81.21 179.928 176.094 196.007 215.534 21.7 53.225-132.774 245.931-226.496 355.758z"/><path fill="#243d42" d="M2533.574 1505.78q-24.046 28.258-48.093 56.498c-8.102 9.526-16.277 19.141-22.128 30.189-9.362 17.692-12.259 38.036-14.002 57.979a602.495 602.495 0 00-.982 92.153 1355.03 1355.03 0 01-27.668-17.488 1208.98 1208.98 0 01-36.195-24.395c-36.915-61.784-34.124-145.623 7.914-204.273a167.758 167.758 0 0111.776-14.632c42.537-6.923 74.73-4.222 81.604-4.214 1.604 0-2.201-8.265-8.478-21.514a3201.784 3201.784 0 0156.252 49.697z" opacity=".46"/><path fill="#243d42" d="M2384.163 1700.479c-47.087-33.012-97.047-73.298-134.576-116.785-7.046-8.167-13.658-16.448-19.713-24.812a281.852 281.852 0 0023.15-7.954 219.94 219.94 0 0045.753-24.223 285.916 285.916 0 0121.047-13.428c.741-.428 7.735 14.914 9.272 15.979 6.392 4.43 13.14 2.657 21.114 1.604 18.947-2.502 37.272-8.841 55.573-14.082 37.185-10.649 75.602-17.88 113.569-25.27-9.738 24.645-32.778 42.03-54.572 57.102-21.68 14.994-43.903 29.115-63.18 47.101-13.019 12.147-25.808 26.645-19.754 44.59 5.827 17.274 19.263 35.924 26.49 53.632q6.383 15.638 12.365 31.178a1227.147 1227.147 0 01-36.538-24.632zm88.986 269.756c-8.585 20.45-19.37 87.399-29.542 163.872q-1.228 9.231-2.447 18.617c-.279.32-.54.614-.778.892l-15.22-12.962-69.887-59.534s46.76-93.52 94.895-177.964v-.008a2172.7 2172.7 0 0114.288-24.705q2.295 9.414 4.157 18.158v.009c7.496 35.205 9.583 61.604 4.534 73.625z"/><path fill="#34545b" d="M2454.703 1976.782c-8.584 20.45-19.37 87.398-29.542 163.872-16.718 125.516-31.8 276.671-32.84 289.895-1.677 21.277-156.163 0-156.163 0-34.419-83.47 23.511-472.998 23.511-472.998q-31.277-33.646-57.815-66.572c-75.63-93.413-124.02-180.737-154.748-250.942q-4.848-11.072-9.116-21.564-.773-1.89-1.522-3.756-1.866-4.615-3.609-9.108-.982-2.528-1.94-5.008c-.63-1.653-1.26-3.298-1.865-4.926-.278-.729-.548-1.449-.818-2.169q-2.235-5.99-4.272-11.735c-.655-1.817-1.285-3.6-1.907-5.376a68.015 68.015 0 006.301 1.816c.278.074.565.14.851.205 0 0 90.877 12.12 175.23-12.61 8.233-2.406 16.4-5.172 24.412-8.331a219.938 219.938 0 0045.753-24.223q2.614-1.829 5.237-3.584 7.868-5.266 15.81-9.845 5.463 9.071 10.9 18.593 5.193 9.096 10.328 18.552c11.751 21.628 23.24 44.541 34.272 68.06 11.596 24.73 22.676 50.132 33.012 75.451 30.556 74.87 54.574 149.003 66.007 202.67v.007c7.496 35.205 9.582 61.605 4.533 73.626z"/><path fill="#243d42" d="M2351.151 1625.028c-12.946 17.136-19.935 39.952-22.561 61.695-4.1 33.977-.868 69.117-10.835 101.85-12.112 39.755-43.43 72.226-80.975 90.05a183.678 183.678 0 01-34.926 12.356c-75.63-93.413-124.02-180.737-154.748-250.942q-4.848-11.072-9.116-21.564-.773-1.89-1.522-3.756-1.866-4.615-3.609-9.108-.982-2.528-1.94-5.008c-.63-1.653-1.26-3.298-1.865-4.926-.278-.729-.548-1.449-.818-2.169q-2.235-5.99-4.272-11.735 2.185-1.792 4.394-3.56c.278.074.565.14.851.205 0 0 90.877 12.12 175.23-12.61 8.233-2.406 16.4-5.172 24.412-8.331a219.938 219.938 0 0045.753-24.223q2.614-1.829 5.237-3.584l37.038 27.3c11.751 21.628 23.24 44.541 34.272 68.06z" opacity=".46"/><path fill="#ed4343" d="M2477.322 1456.083c6.277 13.249 10.082 21.514 8.478 21.514-12.12-.008-102.75-8.38-190.149 42.226a285.878 285.878 0 00-21.047 13.43 219.938 219.938 0 01-45.753 24.222c-8.012 3.159-16.179 5.925-24.411 8.33-84.354 24.73-175.23 12.611-175.23 12.611a69.584 69.584 0 01-7.153-2.021c-58.961-20.369-25.155-108.773-21.4-156.76 3.593-45.795 5.615-92.129-1.775-137.678-15.262-94.043-61.85-230.746 5.565-313.234 22.627-27.684 62.651-35.745 97.234-37.766 8.224-.483 56.384-7.07 87.276-8.838 14.313-.819 24.926-.606 26.137 1.734.009.009.009.025.017.033a.645.645 0 00.033.074c1.08 2.201 26.39 53.053 79.23 63.47 54.011 10.655 76.859-23.748 76.859-23.748s.065.008.205.016c1.579.115 12.275 1.023 29.836 4.91 21.931 4.845 54.567 14.33 93.528 32.717l-76.891 123.618c.523 2.112 1.841 17.52 3.461 40.41.892 12.61 1.874 27.496 2.856 43.674.598 9.738 1.195 19.943 1.776 30.41 1.391 25.082 2.692 51.653 3.658 76.768 1.702 44.28 32.194 107.226 47.66 139.878z"/><path fill="#bd313a" d="M2408.664 1215.476q-23.937 9.82-48.577 17.758c17.635.286 35.32.123 52.668 3.142a122.137 122.137 0 0113.25 3.06c2.436 43.881 4.644 87.829 5.192 131.78.351 28.12 12.222 73.345-11.953 94.265-4.247 3.674-9.355 6.182-14.4 8.65-19.262 9.42-44.46 28.74-65.388 32.097-2.617-10.272 3.414-23.716 2.458-35.24-1.093-13.187-7.507-26.705-19.27-32.766-9.833-5.068-21.539-4.217-32.558-3.242-25.257 2.236-50.16 4.372-75.138 8.585-36.613 6.174-99.587 12.304-130.17-15.042-24.263-21.696-33.545-69.113-44.345-98.484a766.335 766.335 0 01-26.292-85.085c11.802 19.978 31.89 9.165 49.619.268 17.356-8.715 33.887-18.699 51.67-26.62 7.004-3.118 14.157-6.072 21.423-8.6a85.06 85.06 0 01-8.862-15.574c-7.832-18.011-11.874-35.818-9.591-54.82 1.776-14.861 7.66-52.652-2.562-65.385a413.497 413.497 0 0044.993 47.725c11.636 10.532 24.157 27.578 37.717 34.968 8.502 4.64 18.191 6.587 27.782 7.856 44.272 5.818 89.068-1.858 133.692-3.356 20.327-.687 41.285.156 61.35 3.937 24.002 4.525 46.72 13.265 65.557 28.641-21.677-.785-42.422 6.719-62.7 15.033-5.213 2.136-10.402 4.33-15.565 6.449z" opacity=".43"/><path fill="#bd313a" d="M2428.489 1209.534c-10.02-37.749-14.78-79.53-15.284-118.043l-10.423 45.83c-2.445 10.748-4.978 21.718-10.77 31.095-16.045 25.974-57.653 19.117-83.937 22.115a926.018 926.018 0 00-101.31 17.29c-2.358.539-4.945 1.062-7.098-.038a10.431 10.431 0 01-3.696-4.044l-82.73-131.327c-10.28 8.491-21.21 18.033-23.798 31.112-1.428 7.22-.09 14.665 1.248 21.9l18.871 102.08-100.771 9.153 69.081 134.872c7.286-5.584 15.583-11.47 24.707-10.462 12.004 1.324 19.266 13.586 29.292 20.322 18.348 12.327 41.595 4.7 61.027-.254q38.851-9.902 77.409-20.968c51.089-14.616 101.737-30.955 150.995-50.956 6.118-2.483 12.54-5.255 16.4-10.61 4.324-6 4.524-13.96 4.178-21.348a217.537 217.537 0 00-9.45-53.977q-2.092-6.766-3.941-13.742z"/><path fill="#bd313a" d="M2077.45 1346.663s75.287 8.184 103.11-144.845H2102z"/><path fill="#fcc4a7" d="M2373.246 886.456c-4.026 18.486-5.573 33.846-5.573 46.53 0 .761.008 1.514.017 2.25.016.909.04 1.793.065 2.668.025.671.05 1.334.082 1.989a131.815 131.815 0 00.49 6.76c.05.548.107 1.08.173 1.612.057.499.114.99.18 1.473.164 1.284.344 2.536.54 3.748a50.914 50.914 0 00.254 1.513c.073.442.155.884.245 1.318.082.466.18.925.27 1.383.123.597.254 1.178.377 1.751.204.892.409 1.76.63 2.603q.22.834.442 1.644a3.501 3.501 0 01-.205-.016 46.663 46.663 0 01-7.054 7.75c-10.426 9.451-32.799 23.298-69.804 15.998-54.002-10.646-79.256-63.527-79.264-63.544-.008-.008-.008-.024-.017-.032 20.696-10.131 37.276-43.839 47.644-70.68a404.53 404.53 0 008.167-23.29c2.463-7.758 3.764-12.684 3.764-12.684l102.292 54.01a334.666 334.666 0 00-3.715 15.246z"/><path fill="#ed4343" d="M2570.089 1291.016c-11.76 11.76-116.417-.843-140.427 25.189-.965-25.115-2.267-51.686-3.658-76.768a5245.999 5245.999 0 00-1.776-30.41 4448.232 4448.232 0 00-2.856-43.674c-1.62-22.89-2.938-38.298-3.461-40.41l76.89-123.618s25.37 23.732 30.28 41.736 57.283 235.68 45.008 247.955z"/><path fill="#fbb192" d="M2370.996 962.053q.22.835.442 1.645a3.501 3.501 0 01-.205-.016 46.663 46.663 0 01-7.054 7.75c-30.05-24.853-84.845-74.494-101.441-118.258a404.53 404.53 0 008.167-23.29c25.802 13.38 64.174 33.895 102.341 56.572-4.026 18.486-5.573 33.846-5.573 46.53 0 .761.008 1.514.017 2.25.016.909.04 1.793.065 2.668.025.671.05 1.334.082 1.989a131.815 131.815 0 00.49 6.76c.05.54.116 1.08.173 1.612.057.499.114.99.18 1.473.164 1.284.344 2.536.54 3.748a50.914 50.914 0 00.254 1.513c.081.45.155.884.245 1.318.082.466.18.925.27 1.383.123.597.254 1.178.377 1.751.204.892.417 1.76.63 2.602z"/><path fill="#fff" d="M3540.737 583.156h-750.322c-25.253 0-45.725 19.023-45.725 42.488v272.187c.018 48.566-7.885 105.104-22.436 151.704-7.742 24.792-37.623 100.408-72.787 104.001.002 0 155.287-15.868 197.773-135.889h693.498c25.253 0 45.724-19.022 45.724-42.488V625.644c0-23.466-20.472-42.488-45.725-42.488z"/><path fill="#ffc880" d="M3540.737 583.156h-750.322c-25.253 0-45.725 19.023-45.725 42.488v272.187c.018 48.566-7.885 105.104-22.436 151.704-7.742 24.792-37.623 100.408-72.787 104.001.002 0 155.287-15.868 197.773-135.889h693.498c25.253 0 45.724-19.022 45.724-42.488V625.644c0-23.466-20.472-42.488-45.725-42.488z" opacity=".5"/><path d="M2883.102 657.624h3.273v295.419h-3.273zm72.832 0h3.273v295.419h-3.273zm94.927 0h3.273v295.419h-3.273zm128.888 0h3.273v295.419h-3.273zm123.978 0H3307v295.419h-3.273zm115.794 0h3.273v295.419h-3.273z" opacity=".77" fill="#fff"/><path fill="#fff" d="M3003.272 673.813h-.139l-8.6 4.092-1.735-7.908 11.93-5.549h8.742v45.089h-10.198zm110.995 35.724v-6.382l5.828-5.272c9.85-8.81 14.636-13.873 14.774-19.145 0-3.677-2.22-6.59-7.42-6.59-3.886 0-7.285 1.942-9.643 3.746l-2.983-7.561a24.963 24.963 0 0114.775-4.648c10.196 0 15.816 5.966 15.816 14.151 0 7.56-5.48 13.596-12.001 19.423l-4.162 3.468v.14h16.995v8.67zm113.144-10.336a24.861 24.861 0 0010.474 2.775c5.48 0 8.255-2.636 8.255-6.035 0-4.44-4.44-6.451-9.087-6.451h-4.3v-7.561h4.093c3.537-.07 8.045-1.388 8.045-5.203 0-2.705-2.22-4.717-6.659-4.717a20.582 20.582 0 00-9.433 2.706l-2.151-7.63c2.705-1.735 8.117-3.4 13.943-3.4 9.642 0 14.983 5.064 14.983 11.237 0 4.787-2.705 8.533-8.254 10.475v.139c5.41.97 9.78 5.064 9.78 10.96 0 7.977-7.006 13.804-18.451 13.804-5.827 0-10.752-1.526-13.388-3.191zm128.057 10.336v-10.752h-19.977v-6.867l17.064-27.47h12.902v26.43h5.41v7.907h-5.41v10.752zm0-18.66v-9.988c0-2.706.14-5.481.347-8.394h-.278c-1.456 2.913-2.635 5.55-4.161 8.393l-6.035 9.85v.14zm136.314-17.758h-17.48l-.972 6.937a19.508 19.508 0 012.913-.14c4.301 0 8.672.973 11.862 3.261 3.399 2.29 5.48 6.036 5.48 11.307 0 8.394-7.214 15.816-19.353 15.816a28.654 28.654 0 01-12.556-2.567l1.873-7.908a25.904 25.904 0 0010.197 2.22c4.37 0 9.018-2.081 9.018-6.867 0-4.648-3.677-7.492-12.694-7.492a38.897 38.897 0 00-6.104.417l2.983-23.655h24.833zm-640.084 82.065a29.024 29.024 0 00-4.093.138c-9.365.763-13.526 5.55-14.706 10.822h.209c2.22-2.29 5.34-3.607 9.572-3.607 7.561 0 13.943 5.34 13.943 14.705 0 8.949-6.867 16.302-16.648 16.302-12.001 0-17.897-8.949-17.897-19.7 0-8.464 3.122-15.539 7.977-20.048 4.51-4.092 10.336-6.312 17.411-6.66a30.275 30.275 0 014.232-.068zm-5.757 22.613c0-4.161-2.22-7.769-6.73-7.769a6.876 6.876 0 00-6.242 4.024 6.076 6.076 0 00-.417 2.635c.208 4.787 2.498 9.088 7.284 9.088 3.746 0 6.105-3.4 6.105-7.978zm92.539-30.105v6.66l-18.59 38.429h-11.168l18.59-36.28v-.138h-20.672v-8.671zm50.225 33.296c0-5.41 3.122-9.156 8.047-11.306v-.209c-4.37-2.22-6.52-5.896-6.52-9.85 0-7.63 6.867-12.694 15.884-12.694 10.544 0 14.914 6.104 14.914 11.584a10.987 10.987 0 01-6.52 9.92v.207c4.37 1.666 8.255 5.412 8.255 11.238 0 8.186-6.869 13.666-17.343 13.666-11.445 0-16.717-6.452-16.717-12.556zm23.307-.347c0-3.954-2.913-6.312-7.075-7.422-3.468.97-5.48 3.468-5.48 6.729a6.175 6.175 0 006.382 6.312c3.746 0 6.173-2.428 6.173-5.619zm-11.862-21.365c0 3.053 2.776 4.995 6.382 6.104a6.173 6.173 0 004.578-5.757c0-2.774-1.595-5.55-5.479-5.55-3.607 0-5.48 2.359-5.48 5.203zm117.446 25.874a24.92 24.92 0 004.578 0 18.123 18.123 0 008.88-2.774 14.013 14.013 0 005.687-8.324l-.207-.07c-2.012 2.081-4.925 3.26-9.018 3.26-7.63 0-14.082-5.34-14.082-14.081 0-8.81 7.076-16.232 16.995-16.232 11.584 0 17.065 8.88 17.065 19.423 0 9.364-2.984 16.231-7.908 20.74-4.301 3.885-10.197 6.035-17.203 6.313a36.362 36.362 0 01-4.787 0zm6.382-22.613c0 3.884 2.081 7.213 6.382 7.213a6.645 6.645 0 005.827-2.982 4.97 4.97 0 00.554-2.636c0-4.786-1.803-9.503-6.589-9.503-3.607 0-6.244 3.19-6.173 7.908zm86.99-5.48h-.138l-8.602 4.092-1.734-7.908 11.93-5.55h8.742v45.09h-10.198zm58.34 12.971c0 13.943-5.619 23.516-17.134 23.516-11.653 0-16.787-10.475-16.856-23.238 0-13.041 5.55-23.377 17.203-23.377 12.07 0 16.786 10.752 16.786 23.1zm-23.377.278c-.069 10.335 2.428 15.26 6.52 15.26s6.313-5.133 6.313-15.399c0-9.989-2.15-15.261-6.381-15.261-3.886 0-6.52 4.925-6.452 15.4zm89.903-13.25h-.139l-8.601 4.093-1.734-7.908 11.93-5.55h8.742v45.09h-10.198zm38.501 0h-.139l-8.601 4.093-1.734-7.908 11.93-5.55h8.742v45.09h-10.198zm86.366 0h-.14l-8.6 4.093-1.735-7.908 11.931-5.55h8.741v45.09h-10.197zm25.042 35.724v-6.382l5.827-5.271c9.85-8.81 14.636-13.873 14.775-19.146 0-3.676-2.22-6.59-7.421-6.59-3.885 0-7.284 1.943-9.642 3.747l-2.983-7.562a24.963 24.963 0 0114.775-4.647c10.196 0 15.816 5.966 15.816 14.15 0 7.562-5.48 13.597-12.001 19.424l-4.162 3.468v.139h16.995v8.67zm-179.152 45.697c3.174-8.464 110.476-2.455 110.476-2.455s7.364 111.293 18.821 121.932c0 0-108.02 6.546-118.659-2.455 0 0-15.548-103.93-10.638-117.022z"/><path fill="#ffc880" opacity=".5" d="M3325.413 860.572h74.469v8.183h-74.469zm0 22.913h74.469v8.183h-74.469zm8.183 32.733h74.469v8.183h-74.469z"/><path fill="#fff" d="M2958.798 838.477c3.174-8.464 110.476-2.455 110.476-2.455s7.365 111.293 18.821 121.932c0 0-108.02 6.546-118.658-2.455 0 0-15.549-103.93-10.639-117.022z"/><path fill="#ffc880" opacity=".5" d="M2977.62 860.572h74.469v8.183h-74.469zm0 22.913h74.469v8.183h-74.469zm8.183 32.733h74.469v8.183h-74.469z"/><path fill="#ffcf90" d="M3103.455 823.97c.387-.243.868-1.073.36-1.218l-1.244 1.099zm-.819-4.408a4.608 4.608 0 00-2.977 2.305c1.436-.845 1.14-.247 2.771-1.32.49.16.36.93-.073 1.359.392-.228.404.75 1.227.09.24-1.397-.358-1.884-1.65-1.61.083-.393.484-.615.702-.824zm-26.154-37.84l-.062.347a.514.514 0 00.062-.347zm-2.878-26.52a.371.371 0 00.277.365c-.066-.202-.132-.373-.277-.366zm3.107-3.378a2.076 2.076 0 00-.197.174c.174-.023.286-.072.197-.174zm-.229 29.898l.177-.892c-.508.16-.212.508-.177.892zm18.584 36.463a1.11 1.11 0 00.614-.015 2.603 2.603 0 01-.42-.153l-.194.168zm-11.597-26.194l.121.192a5.858 5.858 0 00.657-.194zm5.615 7.628c-.082-.206-1.225.57-1.755.869.526-.246.839-.283 1.038-.197a5.215 5.215 0 00.717-.672zm8.235 12.98l.326.055c-.091-.007-.215-.052-.326-.055zm-16.965-26.593a2.268 2.268 0 00.396-.305 1.547 1.547 0 00-.396.305zm31.711 47.025c.053-.083.07-.145.112-.219-.118.094-.18.172-.112.219zm-6.499-12.006l.173.029c.165-.203.328-.403.477-.61zm-23.391-74.173a.172.172 0 00-.04.006c-.009.245.041.148.04-.006zm70.32-2.899c-.06-1.504 2.012-.588 1.663-2.443-.205.512-2.11 1.203-1.664 2.443zm-57.5 73.92a1.957 1.957 0 01-.317-.276.575.575 0 00.317.275zm59.163-76.363l.005-.009-.046-.184.04.193zm-57.411-3.803a2.255 2.255 0 00-.352-.528 1.557 1.557 0 00.352.528zm-13.18 4.092l.376-.054a.614.614 0 00-.376.054zm20.065-7.583c.213.076.308.254.548.032a.757.757 0 00-.107-.154c-.07.2-.184.306-.441.122zm7.954-.837a2.623 2.623 0 00-.163-.267l-.25.092zm28.37 105.699a4.842 4.842 0 01-.523-1.223c.211.973-1.219 1.37.522 1.223zm-44.363-21.463c-.275.22-.448.295-.598.257a1.844 1.844 0 00.265.145.99.99 0 00.333-.402zm6.716-94.209l1.47-.008a4.823 4.823 0 00-1.47.008zm76.782 66.87l.142.337a.271.271 0 00-.142-.337zm-71.059-67.553a2.524 2.524 0 00.884.894 1.31 1.31 0 00.14-.367zm31.397 115.118a.035.035 0 01.004.014.035.035 0 00-.004-.014z"/><path fill="#ffcf90" d="M3129.03 840.413c1.47.317.98-1.623 1.45-2.592 1.767-.288.597 1.422 1.074 2.42 1.187-.342 2.156-1.88 2.952-1.791.04.3.193.418-.018.781a2.953 2.953 0 012.344-.691 2.858 2.858 0 002.402-1.144 1.345 1.345 0 01.195.445 8.78 8.78 0 01-.328-2.48c.613-.034 1.026-1.21 1.352-.055-.372.006-.365.486-.516.874l.602-.582c.74 1.628-.834.694-.752 1.93a17.47 17.47 0 001.901-1.333 2.226 2.226 0 011.686-.594c.244.79-.3 1.078-.728 1.228-.421.166-.723.295.056.952l-1.642-.456c1.489 2.482-.998-.074.42 2.6 2.268.256 2.305-1.156 4.531-1.107.266-1-.459-1.305-.21-2.303 1.205-1.164 2-.348 2.786.45.76.788 1.493 1.55 2.178.077.08-.626-.028-1.448.069-2.05.104-.597.387-.99 1.307-.809q.158.966.29 1.944c2-.737-.096-2.898 2.334-2.78.033.828-1.112 1.317-.735 1.367 1.936.643.37-1.418 1.271-1.913l1.037 1.326c1.795-1.38 3.02-3.758 4.562-5.48.233.458.263 1.13 1.015 1.144 1.73-2.588 4.7-4.302 7.282-6.086q-.242-.887-.506-1.749c.16-.194.81-.006.873.382 1.113-.602-.713-.575-.862-1.333.262-.573 1.145-.228 1.28.353a15.278 15.278 0 01.202-1.947 12.878 12.878 0 01.458-2.086 4.955 4.955 0 012.19-3.136l.215.545c1.24-1.218-1.943-2.829-.15-3.61l.128.352a19.598 19.598 0 001.877-4.747 7.438 7.438 0 012.443-4.03c-.96-.471-.559-1.22-.267-1.973.27-.753.435-1.5-.973-1.85a15.651 15.651 0 011.885-1.428 5.24 5.24 0 001.58-2.133c.227-.708-1.674-1.269-1.891-2.158l1.508.122c-.491-.449-.97-.89-1.474-1.323l1.85-.492-.33-.85a1.193 1.193 0 01-1.157.567c-.578-1.303 1.213-3.034 2-3.053-.404-1.029-.79-2.048-1.22-3.047.608.07.816.576 1.199.983-1.532-1.629 1.597-.28.19-1.774-.345.198-.9-.107-1.207-.14.913-.73.906-2.414.474-3.625l1.05.204c.196-2.25-.69-4.658-.896-7.171-.41.942-2.23.874-2.462.174l1.57-.432c-1.025-.378-.538.808-1.826-.038.09-.933 1.746-.801 2.321-.309l-.67-1.082c.468-.117.746.124 1.36.132-1.026-.353 1.378-2.179-.43-2.656l.464-.127c-.334-2.563-1.081-3.638-1.579-5.7-1.36.238-1.233-.633-2.451-.99.04-.79.21-1.666.302-2.579a6.281 6.281 0 00-.298-2.749c-1.074-1.056-1.234-.007-2.198-.306 1.182-.49.416-2.243 1.606-1.622a16.666 16.666 0 00-1.297-2.403 15.544 15.544 0 00-2.178-2.472c-.32.513-.369.92-.834.947-.41-.363-.047-1.284.52-1.5l.178.064a3.574 3.574 0 01-1.485-2.143 22.722 22.722 0 01-.605-2.899c-.101-.495-.21-.989-.346-1.456a8.168 8.168 0 00-.226-.677 5.735 5.735 0 00-.335-.62 2.678 2.678 0 00-2.107-1.41l.204.022c-1.014-.374-2-.73-2.976-1.03-.82-.992 1.222-.195 1.024-1.393a5.448 5.448 0 01-3.502-1.809 10.426 10.426 0 00-1.225-1.124 3.306 3.306 0 00-1.69-.535c.219-2.1-1.325-2.888-2.966-3.525a17.809 17.809 0 01-2.427-.912 3.316 3.316 0 01-1.69-1.634l-.213.86c-.922.534-.514-.766-.879-1.141-.193.655.339 1-.207 1.282a29.11 29.11 0 01-7.598-3.008 57.74 57.74 0 00-7.624-3.605c-1.937-.59-1.893 4.256-3.965 1.784l.944-1.485a14.142 14.142 0 01-6.096.128 19.622 19.622 0 00-2.985-.236 7.877 7.877 0 00-2.96.513c.244-.366.27-.852.648-.833-.772-1.202-3.033-.168-3.048.812-.597-.11-.127-.87-.495-1.359-.831-.695-2.056 1.505-2.502.333-.078-.19.225-.382.375-.473-.527.56-2.512-.068-1.953 1.267-1.48-.615-2.731.73-3.938.013-.622 1.546-2.554-.504-2.572 1.66a1.348 1.348 0 00-1.52-1.444 2.814 2.814 0 00-1.993 1.14c.209-.71-.9-.573-.683-1.543-1.057.169-1.952.787-1.565 1.867-1.195-1.118-2.087-.442-2.845.2-.767.63-1.414 1.137-2.372-.388a307.152 307.152 0 01-7.79 5.22c-.754-2.077 2.864-1.392 1.962-3.488a20.007 20.007 0 00-2.724 2.87 5.915 5.915 0 01-2.934 2.08c-.773.076-.095-1.043-.04-1.501a17.92 17.92 0 01-3.41 2.421 7.137 7.137 0 00-2.86 2.803c-.125-.164-.046-.508.061-.803-.182.184-.47.303-.629.47-.146.174-.159.395.186.76.062-.176.118-.358.196-.526.787.325.843 1.208.874 2.115a5.368 5.368 0 00.161 2.089c-1.353-2.673-2.228 1.053-3.813-2.435a1.305 1.305 0 00.453 1.401c-.464.212-.857.066-1.064-.846-.838 1.74.395 1.973-.686 3.146-.37-.318-.298-.681-.617-1.184a7.605 7.605 0 01.105 1.782 1.942 1.942 0 01-.81 1.506c-.19-.238-.593-.333-.346-.66a4.647 4.647 0 00-.605 1.593 13.293 13.293 0 00-.141 1.705 4.507 4.507 0 01-1.147 3.07c-1.623-1.563-.981.49-2.728-.086a13.3 13.3 0 00-.026 1.521c.342-.075.664-.153 1.021-.212-.441 1.145.534 2.538-.352 3.319l-.456-1.05c-.053.376-.132.745-.16 1.122l-.071 1.129.942-1.048c.665 1.369 2.27.465 1.462 1.777-.118-.325-.26 1.048-1.432 1.45 0 0 0-.003-.005-.004.507.654 1.05 1.275.502 2.032-.61.156-1.996-.387-2.4-.287.737.369.724 1.047.843 1.743.094.694.202 1.409 1.008 1.762a2.83 2.83 0 00-1.538-.191l1.231.48c-.42.519-.594.602-1.367.524-.156 1.6 2.301-.542 1.385 1.337-.107-.14-.29-.063-.493-.36a4.794 4.794 0 00.301 2.707 4.801 4.801 0 01.376 2.565c-1.759.8-.647-1.432-2.109-.63a14.81 14.81 0 001.826 3.595 7.858 7.858 0 011.496 3.442c.021-.158.042-.316.074-.477 1.285-.19 1.113.294.799.955-.312.655-.747 1.492.015 1.868-.27-.216-1.488.085-1.188.071a4.08 4.08 0 001.11 2.35c.311.383.665.775 1.042 1.19.39.41.817.838 1.24 1.314l-.734-.017c-.186 1.109.66 2.438.844 3.48.734-.01.885.56 1.61-.18-1.067 2.251.15 3.367 1.327 4.362 1.231.983 2.476 1.831 1.835 3.834-.182-.276-.917-.374-.783-.146l1.777 1.69c.862-.763.417-.63.91-1.511a1.896 1.896 0 011.81.652c-1.178-.478-1.538.988-1.815 1.718.25-.252.658-.331.933-.555-1.012 2.119 2.023-1.082 1.802 1.035l-.543.26c.603.343 1.55.379 1.8 1.009-.914.975-.886-.182-1.793.39.607.742 3.104.075 2.528 1.524-.526-.109-.864-.571-1.393-.687-.717 1.65-.33 1.516-.124 2.225l-.012-.076c.12.578.263 1.142.404 1.712l.085-.578c3.457-1.123 1.944 1.568 4.71 1.4-2.621.13-1.12.566-2.354 1.403-.067.576-.032 1.356-.47 1.48 1.414-.17.066 1.613 2.122 1.304-.336.346.494.65-.533 1.3.936.514.48-.722.993-1.045 1.124.044 1.303 1.055 1.656 2.059.348 1 .806 2.05 2.384 2.074 1.983.725 3.356-.14 5.142.474-.125.952-1.565.907-1.565.907a1.924 1.924 0 001.801 1.79c-.42.182-.527.564-.694 1.143.618.4 1.54-.95 1.755.21a7.715 7.715 0 01-1.83.925c.929.265 2.145.173 3.097.414-.371.783-1.235.604-1.838.803 1.014.376 2.455 1.14 3.54.309a18.7 18.7 0 01-.178-.766c.309.184-.591.989-.95.997-1.317.228-.628-1.152-.345-1.542l.67.175c.675-1.274.146-1.584-.672-1.707-.806-.133-1.896-.094-2.301-.578l1.77-1.145-2.089.377c.17-.574.827-1.517 1.477-1.329.065-1.327-1.06-.017-.814-1.347.064-.183.16-.227.27-.232l-1.033-.163c.421-.187.917-1.12 1.078-.548-.245-1.873-2.808-.674-2.098-2.158l.178.004c-1.956-1.05-1.23.901-3.614.922l2.007-3.293-1.25.852a.624.624 0 01.187-.934c-1.31.081-.392.538-1.434.831.321-1.683-2.394-1.805-.727-3.52-1.12.443-.017 1.332-1.357.984 1.758-1.88-1.165-.731-.863-2.228 1.22-.6 1.236.54 1.56-.944-2.113.955-.782-1.743-1.585-2.113-1.428 1.047-1.673-.921-2.921-1.68.538-.287-.697-2.628-.823-4.031l.27-.137c-1.622.8-2.09-.45-2.887-1.06a2.393 2.393 0 012.05-.466l-.466-.734a1.545 1.545 0 01-1.476-.313l1.262-.522c-.68-.924-2.576-1.184-2.538-2.935-1.145.531-2.433 2.793-3.986 1.775.563-.385 1.55-1 2.004-.77-.147-.075-.74-.154-.626-.538l1.32.003c.1-.844-1.023.155-1.19-.388.855-.456.416-.694 1.13-.99.148.077-.133.617.305.616a2.484 2.484 0 01.559-2.115c-.463.304-1.154.61-1.477.269-.606-1 .851-.888.984-1.706-.734.057-.413-.914-1.727-.295-.14-.31.443-.66.74-.947-.415-.129-.755-.737-1.131-1.156-.37-.42-.756-.668-1.332-.042l-.032.184c-.038-.015-.053-.046-.096-.065l.002.004-.002-.004a3.188 3.188 0 01-1.377-2.737 5.37 5.37 0 00-.663-2.985l.46-.153c-.857-.935-1.114-2.344-2.307-2.884-.086-.342.654-1.018 1.25-1.02-.553-.756-1.161-.74-.626-2.152.999.679.654-.448.794.742.153-1.197.91-1.559-.63-2.503a.94.94 0 00.976-1.517l-.788.888a3.132 3.132 0 01-.16-1.622l1.656.084a1.447 1.447 0 00.187-1.563 6.033 6.033 0 00-.953-1.348c-.757-.877-1.2-1.8.483-2.534-1.123-.626-.842 1.136-2.162.592.128-.517.786-1.014 1.41-1.389.638-.376 1.282-.626 1.296-.772.529-.582-.031-.941-.62-1.354-.604-.409-1.184-.857-.725-1.493-.607.05-2.179-.036-2.466-1.305.44-1.042 2.658-.622 2.957.092-.001.242-.205.309-.394.252.137.368.296.82.992.588l-.541-.255c.637-.353.99-1.586 1.813-1.02-.317-.818-.816-.578-1.275-.148a2.178 2.178 0 00.86-1.364 2.416 2.416 0 01.784-1.37c-.371.046-1.077-.051-.99-.234 1.422-1.401-.714-1.25-.274-2.54 1.153-.221 1.724 1.26 1.718-.226.896-.36 1.39.682 1.664 1.162a.996.996 0 01.08-.866 1.382 1.382 0 01.696-.395 8.707 8.707 0 001.442-.335l.062.72a1.116 1.116 0 01.28-.855l-1.102-.46c.358-.145.514-.375.897-.057-.35-.747-1.7-1.007-2.001-2.225.773.03.545-1.555 1.78-.62-1.38.756 1.24.948.619 2.012.014-.29.21-.498.582-.608a.43.43 0 01.208.381c1.858-.019-.864-1.668.258-2.662.457.762 1.364.994 1.406.703-.429.368-1.189-.883-1.208-1.771 1.143-.153.481-1.06.936-1.323l-.663.1c-.388-.798.088-1.014.49-1.666.444.515-.23.763.145.852-.147-.846.436-.817 1.104-.68.662.122 1.351.3 1.529-.431.719.249.876 1.377 1.442 1.519.222-.762.65-.657 1.076-.522.43.133.848.284 1.202-.381-.827-.908-.783-.611-.456-2.023l-.773.813-.706.854c.116-.7.226-1.446.404-2.137-.608.259-.852 1.293-1.284 1.289.105-1.146.2-.867-.545-1.567.822.56 1.064.109 1.346-.384.277-.489.564-1.061 1.29-.745l1.166 2.656c.916.262 1.383-.291 1.893-.976a2.578 2.578 0 012.164-1.403l-.773-.272c-.109-1.171 1.132-.563 1.626-1.194.222.945.72 1.172 1.15 1.678-.227-.683 1.411-.328 1.11-2.255l1.197 1.032c.854.07 1.152-.708 1.462-1.514.311-.79.635-1.598 1.473-1.588-.287 1.125.55 1.668-.353 2.603.52-.087 1.017 0 .907-.662.206.27.509-.12.848-.475.342-.34.722-.646 1.035-.226.16-.454.087-1.47.707-1.478a1.033 1.033 0 01.063.474c-.066-.474.867-.784.192-1.77 1.042 1.373 2.19 1.222 3.327.983 1.135-.204 2.265-.433 3.061.809a17.471 17.471 0 013.675-.822c-.067.29.002.483-.204.382 1.489.902.911-2.783 2.64-1.776.85 1.58-.922.84-.385 1.44.178 3.169 2.059-.373 3.131 1.519l-.281.178c.797 1.105 2.163-1.074 3.58-.759a1.11 1.11 0 00-.049.48c1.095-1.51 3.029-1.906 4.47-2.139-.592 1.18-.708.57-.61 1.864.636-.095.073-2.045 1.366-2.229.312.734 1.115 1.437 1.018 2.804-.381-.046-.768-.06-1.15-.09.33 1.8 1.474.154 2.03.562l-.202.742c1.754.04 2.14-1.854 3.992-1.323l-.075-.608c1.437-1.643.637 1.208 1.967.078l-.14 1.962a13.155 13.155 0 014.1-1.233c-1.082 1.176-2.646 1.502-3.705 2.14a5.147 5.147 0 001.433.163 1.681 1.681 0 001.39-.552c-.313.105-.766.47-.944.108a3.48 3.48 0 013.793-1.21c-.684 1.753.07 2.253.993 2.695.91.467 1.991.92 1.89 2.435a3.93 3.93 0 013.236 1.147c.458.39.905.815 1.387 1.198a6.177 6.177 0 001.537 1.043c.66-2.981.699.295 2.1-2.359.632.178.813.352.755.548.208.859.433 1.663.56 2.52-.17.966-.82.203-1.168.804.878.92-.307 1.353-.148 2.457.498-.955 1.282-.99 1.553-.238.064-.573.054-1.115.067-1.69 1.218-.12 1.1.657.974 1.37-.139.736-.253 1.395.854 1.394-.342.107-.66.21-1.008.335.488.074.996.614 1.706.982a2.97 2.97 0 002.688.27c-.18.345-.72 1-1.117.818a3.287 3.287 0 001.143 1.204c.468.37 1.026.707 1.549 1.067a6.266 6.266 0 011.284 1.214 1.826 1.826 0 01.29 1.5l-.737.167c.376.262 1.566.066 1.097.854-.288.097-.736.144-.7.336.31.09 1.638.502 1.427 1.2l-.936-.14c-.059 1.185.7 1.765 1.596 2.332a6.614 6.614 0 012.474 1.943c-2.087.58-2.317 2.44-2.491 3.372l-.305.036c.274 2.556 2.59 4.046 3.738 6.507-1.084.925-1.186 2.257-1.195 3.72a10.514 10.514 0 01-.516 4.351c.379-.404 1.687-.003 1.916.449-.418.612 1.55 1.638-.439 1.583l.036-.214c-1.945.492-1.39 1.693-1.46 2.638l2.593.17c-1.882 1.256-1.587 2.854-1.268 4.364.315 1.499.637 2.903-1.114 3.394.597.654.49 1.375 1.064 2.041l-1.376-.208a10.778 10.778 0 00-.9 4.282l-.898-.582c-.305 1.025 3.644 2.19 3.47 3.268l-2.094-.188a10.53 10.53 0 01-1.394 2.623 2.909 2.909 0 00-.242 2.942c-.273-.137-.815-.403-.787-.716-.345.863-2.553 2.53.146 3.437-1.69-.753-.983 1.656-.801 2.993l-1.123-.803c1.124 1.612 1.486 1.875 1.259 3.225-.311.163-1.061-.356-.565-.509-1.125.448.668 1.35-.606 1.973l-.477-.867c-.636.79-.232.96.265 2.028.068.876-1.486 1.368-2.527.684.502.576.926 1.68.237 1.895a1.08 1.08 0 01-.511-.776c-.914.316-1.012 1.053-1.175 1.686-.153.63-.292 1.238-1.192 1.127a1.62 1.62 0 00-.699-.469c.986-.856 1.757-1.594 1.77-1.444-.928-.855-1.785-.308-2.482-2.077a15.71 15.71 0 01.203 2.33c-.041.787-.253 1.49-.826 1.595a2.096 2.096 0 01-.385-.251l-.012-.172c-.258.046-.34.262-.356.548a1.646 1.646 0 00-.868.216c-.722-.747-1.248.202-1.673.454.82 1.119.129 1.31 1.293 1.9-.124-.033-.012-.195.236-.445a.487.487 0 00.098-.246l.042.12c.25-.24.611-.498.988-.845.122.822.08 1.543-.839 1.27a21.775 21.775 0 01.637 2.279c-1.738-1.175-3.407-1.358-4.145-2.34a5.793 5.793 0 01-.85.965 11.232 11.232 0 00-.967.916 4.14 4.14 0 00-1.199 2.863c-.352.451-.754-.552-1.037-.894.172-.322.481-.37.494-.762-.654.871-2.44 1.026-2.283 2.78-1.338-.566.28-1.756-1.221-1.154l.101-.585a2.313 2.313 0 00-1.174-.413 1.799 1.799 0 00-.986.196 11.751 11.751 0 00-1.834 1.49 4.914 4.914 0 01-2.092 1.217 2.644 2.644 0 01-2.406-1.14.96.96 0 01.373.656 9.044 9.044 0 00-3.058-.844c-1.038-.194-2.123-.17-3.195-.327a11.13 11.13 0 01-3.143-.732 6.884 6.884 0 01-1.422-.78 6.547 6.547 0 01-1.214-1.233c-.902-.889-1.437.12-2.457.638l.347-1.465q-.9.542-1.835 1.07c-1.079.196-1.394-.99-1.786-2.03-.403-1.04-.836-2.031-2.393-1.513l-.228 1.011c-.632-.524-2.533-.79-1.834-1.699-.164.115-.764.756-.77.147l.382-.676c-.805.054-1.59.05-2.4.064-.995-1.318 1.856-2.441.11-3.794-.827-.21-3.228.513-3.278 1.11a1.25 1.25 0 01.015 1.542l-.88-.117c-1.434 1.787-3.36 3.3-2.57 5.79l1.97-.338-.228 1.178c-.359-.195-.696-.417-1.046-.625-.02 1.26.868.742 1.626.471a1.93 1.93 0 00-.154 1.353q1.195-.53 2.36-1.08c-.325.854-1.477 1.16-.929 2.099 1.103-.523.51-2.029 1.794-2.04.046 1.233-.552 1.864.595 1.511a1.139 1.139 0 01-.95.859c.987-.239 1.808.73 2.737-.166.018 1.469 2.294.86 1.233 2.746a4.158 4.158 0 012.558-.734c-2.233 1.807 2.186 1.224.773 3.592a2.44 2.44 0 012.662-.54 5.133 5.133 0 002.845.25c-.146.142-.442.432-.537.27.79.512.824 1.25 1.267 1.853.727-1.789 2.22-1.77 3.263-2.694.58 2.074-1.28 1.994-1.442 3.787.379-1.484 2.375-.985 2.318-2.336.555 1.328.581.724.652 2.389.693-2.298.899-.193 1.928-1.512 1.015 1.402-.1 2.277 1.429 1.822a.765.765 0 01-.218 1.048 2.535 2.535 0 01-.644.406zm31.571-12.119l.018.021c-.184.217-.364.381-.469.496a6.468 6.468 0 00.451-.517zm1.994-1.89a11.322 11.322 0 00-.89.79c-.396-.283-.655-.712-.439-.874.117.336.76.093 1.33.085zm-10.08-3.917c.148-.346.399-.192.608.006a2.595 2.595 0 00-.374.47l.068.159a3.738 3.738 0 01-.303-.635z"/><path fill="#ffcf90" d="M3153.078 824.31c-.022.054-.012.117-.058.166a2.265 2.265 0 00.348.132l-.15-.425zm-76.666-42.181l.008-.06a.559.559 0 01-.137.179 1.314 1.314 0 01.129-.12zm103.124 11.179l-.349-.029.282.263.067-.234zm-100.659 3.179a.687.687 0 00-.192.346.913.913 0 00.192-.346zm3.21 5.201c.034.332.07.664.116.99a3.763 3.763 0 00-.116-.99zm2.312 4.158a3.656 3.656 0 00.52-.297c.001-.005 0-.007.002-.012zm-6.768-71.135a.537.537 0 00.128-.175c.227-.51.024-.223-.128.175zm-9.688 21.904a3.325 3.325 0 01-.492-.85c-.193.392-.29.711.492.85zm34.204-33.21l.001.025c.055-.013.105-.016.161-.024zm-34.441 31.291a.947.947 0 00-.255 1.069 1.396 1.396 0 00.255-1.07zm30.463 66.434l.138.194a.646.646 0 01.164-.151zm.302.043l.3.043c-.09-.077-.174-.135-.3-.043zm.942.118l-.643-.075a.437.437 0 00.643.075zm-5.482-4.895l-.401.308a1.641 1.641 0 00.401-.308zm-1.462-1.235c.241.397.063 1.56.74 1.787l.321-.244c-.738.318-.159-1.839-1.061-1.543zm-.682-9.88l.683 1.408c.223-.55.538-1.28 1.084-.856-.037-2.471-.644 1.087-1.767-.552zm-2.37-4.086c.7.472.602-.487.866-.64-.698-.093-.87-.12-.865.64zm-15.379-29.164l1.237-.232c-.32-.524-.474.111-1.237.232zm-7.554-5.37l-.695.758 1.181.177-.486-.935zm8.694-4.261c.055.078.115.156.181.234-.161-.297-.286-.592-.432-.896zm35.07-27.704l-.293-1.53c-.393.306-.34 2.044.292 1.53zm23.805.057c.1.811.64 1.428 1.21.773-.498-.215-.9-.911-1.21-.773zm33.47 51.227l-.511-.479.414.894.097-.415zm189.334 32.736c.198-.414.149-1.372-.37-1.221l-.458 1.595zm-3.17-3.26a4.479 4.479 0 00-1.285 3.534c.77-1.484.847-.8 1.658-2.6.516-.152.83.584.698 1.174.21-.402.767.415 1.108-.583-.574-1.309-1.359-1.402-2.325-.453-.147-.379.075-.779.146-1.072zm-42.094-20.716l.1.346a.534.534 0 00-.1-.346zm-15.239-23.345a.345.345 0 00.415.192c-.159-.152-.29-.279-.415-.192zm.706-4.86a2.417 2.417 0 00-.06.277c.128-.125.192-.237.06-.277zm14.533 28.205l-.24-.896c-.389.364.036.558.24.896zm34.75 23.568a1.071 1.071 0 00.527-.329 2.228 2.228 0 01-.451.084zm-23.686-17.334l.2.117a5.719 5.719 0 00.498-.471zm8.69 4.182c-.174-.143-.805 1.087-1.13 1.603.348-.468.606-.65.826-.669a5.127 5.127 0 00.304-.934zm13.911 7.196l.314-.126c-.083.042-.215.07-.314.126zm-28.194-15.393a2.227 2.227 0 00.218-.45 1.52 1.52 0 00-.218.45zm52.194 24.759c0-.099-.017-.16-.022-.245-.051.143-.062.243.022.245zm-12.226-6.622l.165-.067c.03-.26.059-.517.071-.772zm-58.596-56.542a.181.181 0 00-.03.033c.142.213.123.097.03-.033zm58.783-28.062c-.688-1.393 1.79-1.26.662-2.88.02.554-1.648 1.868-.662 2.88zm-11.11 87.58a2.11 2.11 0 01-.428-.078.615.615 0 00.428.078zm11.772-90.46l.002-.011-.12-.156zm-54.498 14.024a2.296 2.296 0 00-.587-.219 1.66 1.66 0 00.587.22zm-7.092 11.818l.27-.311a.718.718 0 00-.27.31zm10.632-18.1c.218-.028.383.087.48-.215a.752.752 0 00-.164-.088c.036.207-.008.35-.316.304zm6.625-3.946a2.718 2.718 0 00-.25-.198l-.191.18c.146.003.288.001.44.018zm83.067 81.239a4.752 4.752 0 01-1.014-.83c.63.762-.423 1.79 1.014.83z"/><path fill="#ffcf90" d="M3346.488 817.546c-.119.33-.228.483-.38.526a1.959 1.959 0 00.31-.009.96.96 0 00.07-.517zm-45.856-91.08l1.45-.814a6 6 0 00-1.45.814zm110.752 24.612l.31.226a.292.292 0 00-.31-.226zm-105.285-28.11a2.7 2.7 0 001.244.44 1.264 1.264 0 00.002-.4zm89.492 88.838a.031.031 0 01.01.01.031.031 0 00-.01-.01z"/><path fill="#ffcf90" d="M3416.797 770.915c-.099-.898-.323-1.77-.449-2.633-.22-1.74-.488-3.322.224-4.942-1.07.032-1.04-.877-1.22-1.698-.152-.827-.398-1.6-1.794-1.206.69-2.371 1.36-2.018 1.078-5.048-.215-.76-2.069-.299-2.785-.956l1.34-.702q-1.011-.207-2.007-.381l1.271-1.456-.76-.59a1.197 1.197 0 01-.645 1.152c-1.186-.861-.788-3.363-.155-3.835-.964-.688-1.858-1.396-2.873-1.988.535-.296 1.038.014 1.606.15-2.292-.518 1.111-1.184-1-1.654-.149.377-.795.442-1.06.597.266-1.177-.819-2.67-2.022-3.401l.964-.48c-1.379-2.077-3.844-3.505-5.842-5.361.422 1.005-.992 2.173-1.687 1.804l.83-1.397c-1.04.411.214.98-1.37 1.215-.619-.775.68-1.814 1.473-1.82l-1.3-.383c.251-.413.634-.417 1.088-.83-1.017.442-.638-2.686-2.34-1.748l.232-.42a18.271 18.271 0 00-2.878-1.758 25.021 25.021 0 01-2.685-1.294c-.745 1.165-1.334.479-2.44 1.136-1.137-1.176-2.216-2.916-3.984-3.643-1.494.074-.845.9-1.724 1.402.442-1.182-1.317-1.851-.065-2.275a16 16 0 00-2.559-.726 16.237 16.237 0 00-3.184-.231c.105.587.342.913.026 1.254-.541.02-.888-.89-.614-1.433l.17-.077c-1.786.32-3.178-1.074-4.586-2.416-1.412-1.27-2.829-2.493-4.39-1.531l.17-.09-2.845.665c-1.097-.51.919-.737.254-1.715a4.205 4.205 0 01-3.643-.013 4.015 4.015 0 00-3.16-.35c-.52-2.011-2.129-2.201-3.814-2.243-1.692-.046-3.47.163-4.538-1.183l.037.886c-.718.767-.696-.578-1.139-.828-.006.682.593.848.154 1.282a25.41 25.41 0 01-8.105-.94 60.36 60.36 0 00-8.412-1.68c-1.038-.062-1.263 1.082-1.555 1.998-.296.918-.643 1.588-1.996.684l.587-1.687a9.797 9.797 0 01-3.029 1.14 29.406 29.406 0 01-3.117.513 19.647 19.647 0 00-3.108.588 11.568 11.568 0 00-1.487.516 8.483 8.483 0 00-1.39.839c.142-.424.03-.898.423-.995-1.141-.913-3.17.758-2.88 1.716-.644.097-.396-.785-.924-1.126-1.082-.375-1.636 2.129-2.47 1.173-.143-.153.106-.44.231-.577-.362.684-2.612.886-1.583 1.917a3.671 3.671 0 00-2.099.833 2.721 2.721 0 01-1.9.773c-.022.87-.712.986-1.295 1.206-.578.227-1.064.493-.619 1.48a1.397 1.397 0 00-2.116-.577 3.092 3.092 0 00-1.455 2.064c-.118-.749-1.14-.021-1.374-1.005a2.953 2.953 0 00-1.03 1.257 1.102 1.102 0 00.389 1.271c-1.675-.277-2.198.885-2.578 1.876-.362 1.045-.65 1.88-2.361 1.236-.41.853-.71 1.75-1.018 2.599-.296.856-.646 1.639-.886 2.459-.459 1.65-1.035 3.127-1.358 4.655-.975-.504-.704-1.341-.368-2.117.356-.766.694-1.513-.345-2.039a11.051 11.051 0 00-.316 2.227l.043 2.022a8.234 8.234 0 01-.162 1.846 5.07 5.07 0 01-.614 1.794c-.518.585-.78-.696-1.054-1.063a8.728 8.728 0 01-.318 2.108c-.087.333-.194.655-.292.98l-.257.98a14.63 14.63 0 00-.406 1.942 6.666 6.666 0 00-.05.98 4.983 4.983 0 00.184 1.01c-.202-.043-.38-.355-.502-.646-.012.51-.512 1.103.49 1.218l-.19-.528c.783-.259 1.451.375 2.027 1.056.574.686 1.053 1.424 1.43 1.516-1.366-.59-1.639-.038-1.999.465-.338.497-.731.971-2.495.097a1.397 1.397 0 001.28.806c-.232.459-.636.59-1.36.018.408 1.86 1.525 1.279 1.387 2.868-.488-.02-.653-.35-1.213-.544.875.874 1.89 1.673 1.476 3.014-.295-.074-.675.093-.673-.313a4.41 4.41 0 00.472 1.624c.278.504.607.977.904 1.45a4.354 4.354 0 01.824 3.17c-2.22-.374-.536.954-2.309 1.44.267.427.521.85.797 1.262.242-.245.507-.493.76-.734.212 1.193 1.82 1.837 1.488 2.967l-.956-.643c.32.684.578 1.384.958 2.034a13.684 13.684 0 01.296-1.394c1.227.847 2.143-.776 2.145.785-.279-.221.347 1.047-.464 1.987 0 0-.001-.004-.006-.002a3.93 3.93 0 011.007.557 1.058 1.058 0 01.421.995c-.45.432-1.936.635-2.236.919 1.639-.092 1.484 2.358 3.316 2.219a2.82 2.82 0 00-1.454.553l1.329-.156c-.105.65-.236.814-.954 1.099.563 1.537 1.803-1.56 1.815.589-.157-.08-.286.075-.596-.106a5.112 5.112 0 001.535 2.303 11.148 11.148 0 01.887 1.008 3.212 3.212 0 01.63 1.151c-1.202 1.489-1.264-.99-2.2.376 1.782 1.974 4.897 2.926 6.179 4.977l-.151-.468c1.09-.737 1.14-.204 1.151.54.01.737-.021 1.708.845 1.72-.35-.074-1.31.714-1.048.577.9 1.468 2.87 2.009 5.287 3.001l-.673.297a3.959 3.959 0 001.056 1.508 9.96 9.96 0 011.305 1.323c.662-.325 1.06.133 1.378-.858a3.03 3.03 0 001.07 2.497 5.57 5.57 0 002.16.912c1.592.338 3.1.58 3.485 2.667-.297-.17-1.013.073-.78.217l2.42.737c.413-1.077.075-.757.097-1.775a1.942 1.942 0 011.946-.223c-1.29.097-.916 1.586-.81 2.367.103-.34.435-.596.574-.922.116 2.363 1.3-1.89 2.127.109l-.362.48c.71.033 1.575-.364 2.11.082-.345 1.295-.887.246-1.421 1.172.911.393 2.827-1.37 3.024.192-.526.149-1.058-.107-1.59.035.171 1.804.455 1.507.993 2.044l-.049-.062c.395.462.804.906 1.222 1.34l-.216-.553c1.281-1.303 1.899-1.2 2.515-.935a2.06 2.06 0 002.406-.06c-2.275 1.38-.713 1.038-1.386 2.37.236.539.67 1.21.343 1.53 1.176-.831.899 1.387 2.57.133-.12.466.782.324.205 1.396 1.109-.01.05-.866.34-1.4 1.022-.508 1.72.262 2.551.998.839.696 1.82 1.356 3.22.61 2.142-.378 2.888-1.849 4.77-2.213a1.001 1.001 0 01-.284 1.124 2.52 2.52 0 01-.594.464 2.048 2.048 0 002.554.585c-.266.37-.152.757.02 1.344.758.036.818-1.6 1.647-.743a7.591 7.591 0 01-1.09 1.764c.966-.28 1.98-1.015 2.934-1.291.111.865-.737 1.159-1.15 1.642 1.083-.174 2.775-.342 3.247-1.623l-.582-.547c.372-.018.041 1.148-.267 1.353-1.025.927-1.19-.638-1.16-1.115l.677-.2c-.122-1.438-.747-1.435-1.524-1.116-.77.31-1.71.964-2.323.736l.911-1.896c-.527.471-1.062.929-1.607 1.39-.165-.58-.104-1.733.56-1.902-.66-1.175-.932.542-1.438-.719a.277.277 0 01.11-.339c-.327.134-.659.28-.988.402.266-.378.196-1.428.644-1.027-1.205-1.512-2.807.856-2.975-.782l.158-.089c-2.264.08-.596 1.4-2.679 2.614q-.007-1.936.033-3.857l-.654 1.367a.62.62 0 01-.323-.9c-1.109.718-.068.671-.83 1.436-.58-1.651-3.053-.395-2.457-2.715-.765.937.67 1.168-.697 1.523.605-2.523-1.403-.083-1.896-1.547.78-1.116 1.368-.128.907-1.583-.69.932-1.091.64-1.423.133-.326-.526-.577-1.269-1.035-1.237-.748 1.603-1.95-.009-3.43-.11.339-.507-1.909-2.01-2.689-3.215l.176-.245c-1.068 1.455-2.094.559-3.097.366.577-.911.94-1.189 1.618-1.345l-.764-.45a1.554 1.554 0 01-1.474.383l.89-1.037a6.793 6.793 0 00-1.932-.343 2.136 2.136 0 01-1.726-1.17c-.79.986-.893 3.609-2.776 3.368.329-.597.935-1.59 1.453-1.581-.168-.004-.742.186-.818-.212l1.196-.58c-.305-.805-.85.587-1.263.18.562-.79.057-.815.564-1.397.168.008.167.617.565.419a2.478 2.478 0 01-.472-2.162c-.279.48-.763 1.06-1.211.889-1.007-.646.363-1.179.108-1.98-.644.379-.799-.644-1.703.487-.268-.224.1-.795.24-1.186-.87.123-2.328-1.637-2.786-.024l.06.178c-.043.004-.072-.017-.121-.015l.004.003-.004-.003a3.386 3.386 0 01-2.487-1.923 5.717 5.717 0 00-1.949-2.465l.35-.337c-1.24-.463-2.032-1.718-3.41-1.663-.244-.268.136-1.225.67-1.477-.846-.463-1.345-.214-1.545-1.725 1.239.18.394-.703 1.072.334-.204-.582-.192-1.039-.357-1.37-.147-.344-.468-.557-1.368-.674a.952.952 0 00.154-1.83l-.262 1.157a2.897 2.897 0 01-.932-1.422l1.517-.652c.251-1.508-1.028-1.87-2.08-2.389-1.03-.508-1.955-1.112-.839-2.609-.63-.026-.703.344-.757.73-.05.381-.114.791-.842.847a2.945 2.945 0 01.576-1.978c.378-.664.777-1.21.715-1.357.258-1.591-2.703-.328-2.66-1.986-.486.366-1.882 1.085-2.812.11-.145-1.161 1.979-1.999 2.585-1.492a.306.306 0 01-.222.45c.319.262.705.597 1.167.013l-.6.052c.387-.672-.002-2.02.995-1.948-.733-.59-1.01-.079-1.15.567a2.526 2.526 0 00-.057-1.74 3.29 3.29 0 01-.124-1.72c-.278.265-.914.592-.948.376.363-2.108-1.299-.694-1.695-2.078.806-.897 2.135.043 1.261-1.258.517-.882 1.525-.288 2.028-.026-1.283-1.111.62-2.262.811-2.89l.477.597a1.326 1.326 0 01-.28-.951l-1.16.347c.199-.367.197-.674.683-.658-.77-.4-1.934.273-2.99-.546.631-.489-.51-1.64 1.044-1.7-.645 1.558 1.564-.054 1.71 1.265a.798.798 0 01.1-.914.399.399 0 01.396.18c.743-.664.317-.854-.273-1.093-.578-.233-1.381-.507-1.218-1.287.832.307 1.697-.128 1.552-.395-.116.597-1.488.097-2.052-.6.833-.898-.32-1.195-.154-1.726l-.411.557c-.83-.375-.635-.885-.7-1.673.677.09.29.761.647.567-.647-.564-.143-.945.423-1.32.571-.381 1.19-.754.842-1.444.735-.328 1.587.417 2.114.111-.678-1.516 1.556-.865 1.075-2.376-1.201-.054-.996.095-1.719-1.153-.021.743.04 1.562.06 2.318q-.586-.925-1.157-1.902c-.232.641.243 1.589-.074 1.902-.69-.94-.432-.795-1.461-.786.985-.171.887-.681.735-1.256-.17-.58-.337-1.193.436-1.45l2.664 1.143c.892-.4.784-1.108.68-1.946a2.566 2.566 0 01.688-2.363l-.735.27a.631.631 0 01-.094-.984c.23-.273.588-.507.582-.903a3.558 3.558 0 001.91.651c-.584-.407.813-1.054-.502-2.405q.787.085 1.545.2c.714-.374.461-1.205.316-2.009-.165-.81-.315-1.668.397-2.088.342 1.11 1.303 1.17 1.063 2.4.375-.323.816-.485.387-1.002.314.141.328-.368.467-.803.124-.446.304-.888.77-.66-.08-.47-.62-1.333-.086-1.63a1.056 1.056 0 01.272.394c-.278-.389.393-1.104-.64-1.67a2.836 2.836 0 003.417-.53c.964-.602 1.922-1.264 3.096-.404a15.302 15.302 0 013.14-2.006c.031.295.159.456-.068.425 1.69.39-.019-2.925 1.96-2.522 1.289 1.244-.628 1.088.069 1.495.577 1.48 1.012 1.228 1.54.818.517-.42 1.131-1.037 1.894-.276l-.217.252c.537.407.965-.004 1.467-.511.496-.517 1.058-1.158 1.782-1.19a1.103 1.103 0 00.078.476c.664-1.775 2.488-2.593 3.855-3.213-.297 1.282-.562.718-.145 1.951.607-.24-.435-2.003.808-2.482.492.638 1.462 1.142 1.695 2.479l-1.162.188c.767 1.688 1.496-.216 2.146.04l-.022.767c1.758-.334 1.688-2.287 3.666-2.222l-.222-.578c1.044-1.922.93 1.064 1.988-.37l.337 1.935a13.99 13.99 0 013.81-2.178c-.786 1.424-2.285 2.095-3.191 2.958.69-.001 2.35-.089 2.748-1.043-.289.18-.654.645-.925.339a3.618 3.618 0 013.504-2.101c-.23 1.868.666 2.162 1.719 2.36 1.052.2 2.275.374 2.622 1.865a4.555 4.555 0 013.694.19 14.718 14.718 0 003.848 1.23c-.498-3.046.834.052 1.194-2.93.701-.059.948.04.97.244l1.652 2.153c.29.948-.756.526-.83 1.198 1.369.51.34 1.35 1.09 2.34.038-1.094.815-1.39 1.521-.808l-.824-1.61c2.34-1.087 1.136 2.815 3.46 1.787l-.848.754c1.143-.281 3.652.974 5.314-1.019.08.386.075 1.24-.425 1.319a9.527 9.527 0 004.046.276c1.416-.073 2.71.067 3.359 1.083l-.438.62c.507-.044 1.255-1.007 1.516-.095-.14.27-.442.61-.263.731.313-.145 1.616-.728 2.018-.1l-.802.564a2.902 2.902 0 003.007.55 7.175 7.175 0 013.226-.434 2.889 2.889 0 00-.128 2.502 5.794 5.794 0 001.016 1.638l-.18.25a5.665 5.665 0 001.643.784 14.277 14.277 0 001.773.306 16.69 16.69 0 013.775.661 3.11 3.11 0 00.396 1.874 11.504 11.504 0 001.215 1.587c.9 1.078 2.028 2.111 2.287 3.494.053-.54 1.3-1.072 1.76-.873.043.717 2.231.28.63 1.458l-.107-.18c-1.217 1.553-.16 2.162.354 2.92l2.191-1.4a3.491 3.491 0 00-.246 1.388 2.618 2.618 0 00.244 1.125 5.68 5.68 0 001.439 1.72c1.038 1.065 2.075 2.075.877 3.394.825.236 1.1.902 1.932 1.17l-1.285.533a11.632 11.632 0 001.362 4.078l-1.076-.058c.29.999 4.234.12 4.605 1.165l-1.928.829a4.895 4.895 0 01.14 1.456c-.056.502-.141 1.002-.168 1.486a3.276 3.276 0 00.178 1.402 3.066 3.066 0 00.93 1.31c-.304-.004-.907-.005-1.012-.294a14.528 14.528 0 00-.212 1.98c.08.679.376 1.209 1.824 1.046-.927.022-.985.492-.707 1.106.268.61.92 1.396 1.225 1.951l-1.342-.275c1.632 1.004 2.101 1.11 2.427 2.45-.213.276-1.113.09-.721-.247-.814.862 1.186.997.19 2.059l-.752-.616c-.336.96.144.973 1.001 1.784a1.002 1.002 0 01-.42 1.197 2.183 2.183 0 01-1.685.375c.674.355 1.433 1.231.89 1.697a1.105 1.105 0 01-.758-.552 1.458 1.458 0 00-.526 1.004 4.262 4.262 0 00.037 1.02c.082.66.133 1.276-.754 1.491a1.583 1.583 0 00-.816-.202c.338-.577.614-1.11.814-1.484.207-.37.348-.575.373-.51-1.167-.48-1.78.333-3.044-1.095a13.023 13.023 0 01.976 2.13c.22.764.28 1.522-.261 1.81a2.024 2.024 0 01-.447-.103l-.068-.162c-.23.138-.235.376-.156.657a1.99 1.99 0 00-.765.515c-.952-.472-1.108.67-1.467 1.053 1.147.77.539 1.21 1.86 1.351-.137.01-.065-.176.093-.507a.52.52 0 00.012-.274l.079.1c.165-.319.399-.721.676-1.17.354.728.575 1.455-.394 1.525a20.922 20.922 0 011.339 1.943 12.96 12.96 0 00-2.75-.275 4.287 4.287 0 01-2.012-.397c-.462 1.745-2.178 3.12-1.284 5.751-.152.585-.919-.174-1.32-.361.038-.384.31-.576.173-.953a5.801 5.801 0 01-.986 1.644 1.733 1.733 0 00-.109 1.96c-1.5.102-.453-1.743-1.637-.488l-.146-.582c-2.158-.195-2.564 1.421-3.251 3.073-.67 1.593-1.636 3.229-4.14 2.31.33.098.493.14.67.392-2.292.164-4.179 1.314-6.243 2.234-2.044.916-4.25 1.602-6.593.728-1.28-.285-1.204.862-1.817 1.852l-.49-1.424c-.33.635-.674 1.257-1.029 1.875-.836.75-1.753-.067-2.668-.752-.924-.679-1.844-1.245-2.92.008l.358.982c-.843-.136-2.639.713-2.534-.45-.079.185-.247 1.047-.588.535l-.043-.775c-.67.47-1.355.9-2.049 1.35-1.596-.57.255-3.07-2.019-3.257-.84.276-2.515 2.167-2.223 2.7a1.265 1.265 0 01.876 1.295l-.826.372c-.24 2.279-1.046 4.59 1.007 6.267.507-.443 1.01-.9 1.505-1.358l.454 1.117-1.244.047c.68 1.056 1.157.14 1.658-.484a1.917 1.917 0 00.612 1.227l1.44-2.19c.188.894-.636 1.778.352 2.267.663-1.028-.676-1.99.426-2.681.718 1.019.546 1.871 1.343.96a1.122 1.122 0 01-.348 1.233c.718-.715 1.96-.384 2.271-1.613.817 1.25 2.454-.514 2.563 1.653.197-.53 1.155-1.822 1.814-1.978-.954 2.726 2.556-.157 2.608 2.623a2.511 2.511 0 012.01-1.885 5.091 5.091 0 002.597-1.295c-.052.2-.153.607-.321.523.954-.013 1.376.612 2.076.907-.314-1.893.988-2.686 1.412-4.02 1.588 1.476-.068 2.365.731 3.986-.45-1.475 1.539-2.062.79-3.193 1.17.853.881.326 1.798 1.703-.585-2.34.673-.652.896-2.281 1.595.69 1.07 2.012 2.16.833.909.447-.009 1.697-.009 1.697 1.42-.485.025-1.903-.057-2.982 1.396-1.114 1.232.94 2.14 1.575.855-.859.928-2.746 1.682-3.012.182.245.374.276.365.692.223-.881.955-1.301 1.705-1.75a2.774 2.774 0 001.58-2.113 1.34 1.34 0 01.378.303 8.817 8.817 0 01-1.438-2.046c.518-.34.363-1.57 1.186-.681-.337.168-.112.592-.071 1.002l.281-.78c1.407 1.13-.445.97.206 2.05a18.521 18.521 0 001.098-2.026c.343-.671.71-1.203 1.252-1.282 1.142 1.24-1.595 1.769.344 2.24-.553.118-1.093.244-1.65.33 2.442 1.576-.92.357 1.544 2.136 2.067-.789 1.512-2.018 3.494-2.903-.188-1.018-.96-.993-1.157-2.004.598-1.565 1.696-1.095 2.707-.688 1 .418 1.928.81 2-.754-.344-1.223-1.678-2.856.181-3.145l.981 1.692c.796-.673.487-1.373.294-1.954-.202-.599-.279-1.057.87-1.46.335.78-.584 1.612-.21 1.53 2.056-.053-.158-1.451.512-2.237l1.435.886c1.2-1.912 1.614-4.571 2.508-6.78.366.355.601.981 1.34.739a10.593 10.593 0 01.854-2.264 17.741 17.741 0 011.216-2.168 28.9 28.9 0 011.361-2.146c.463-.709 1.04-1.381 1.427-2.085q-.555-.772-1.123-1.504c.076-.255.748-.338.952.015.806-1.048-.877-.269-1.3-.945.05-.658 1.009-.69 1.336-.182a25.617 25.617 0 01-.943-4.177c-.078-1.475-.087-2.888.72-3.95l.42.425c.309-.842-.423-1.323-1.06-1.752-.629-.437-1.24-.816-.616-1.598l.277.272a14.694 14.694 0 00-.022-2.697m-5.239 23.785l.024.014-.289.638.265-.652zm1.285-2.53c-.185.296-.39.672-.595 1.078-.47-.13-.857-.45-.706-.684.212.278.772-.173 1.301-.394zm-10.895-.167c.027-.392.317-.335.58-.22a2.858 2.858 0 00-.2.594l.117.129a3.604 3.604 0 01-.497-.503z"/><path fill="#ffcf90" d="M3403.085 793.557c-.004.061.028.12-.002.182a2.176 2.176 0 00.375 0l-.283-.356zm-91.373 1.588l-.019-.059a.576.576 0 01-.042.222 1.204 1.204 0 01.061-.163zm101.789-41.577l-.311.162.392.084-.081-.246zm-92.829 53.527a.678.678 0 00-.006.399.899.899 0 00.006-.399zm5.454 3.192c.198.277.392.567.598.835a3.924 3.924 0 00-.598-.834zm4.177 2.612a3.553 3.553 0 00.315-.512c-.002-.005-.005-.006-.006-.011zm-43.118-60.946a.535.535 0 00-.028-.213c-.168-.524-.137-.185.028.213zm5.07 23.619a3.917 3.917 0 01-.867-.488c.042.433.128.754.866.488zm8.217-49.017c.003.009.007.01.012.021.049-.042.097-.072.148-.11zm-9.43 47.484a.95.95 0 00.346 1.045 1.397 1.397 0 00-.345-1.045zm59.653 45.127l.23.085a.629.629 0 01.059-.216zm.289-.131l.286-.13c-.122-.014-.228-.016-.286.13zm.884-.406l-.598.277c.191.027.424.1.598-.277zm-7.506-1.27l-.184.472a1.59 1.59 0 00.184-.473zm-1.96-.319c.425.233.9 1.34 1.628 1.166l.148-.375c-.234.33-.528-.04-.835-.402-.305-.374-.62-.742-.94-.389zm-5.823-8.223l1.326.89c-.088-.596-.185-1.39.508-1.282-1.296-2.142-.005 1.262-1.834.392zm-4.158-2.423c.856.075.289-.717.447-.977-.657.239-.825.298-.447.977zm-27.436-19.529l1.013-.744c-.521-.355-.378.306-1.013.744zm-9.248-1.629l-.29 1.007 1.131-.361-.841-.646zm5.744-7.888l.277.137-.858-.639.581.502zm11.364-44.231l-.849-1.304c-.238.43.493 2.008.85 1.304zm22.742-6.566c.295.77.987 1.26 1.4.494-.552-.1-1.122-.696-1.4-.494zm63.788 27.443c-.22-.034-.454-.056-.687-.077.298.138.555.307.831.466z"/><path fill="#a8531a" d="M2513.427 756.974s-264.806 65.432-276.012 55.314c-14.119-12.744-16.677-37.723-19.24-55.949-2.87-20.395-4.993-36.305-.74-56.882 7.686-37.226 27.58-76.937 67.716-80.066 15.03-1.169 25.19.798 37.986-8.145 9.407-6.578 18.753-9.621 29.903-11.527 23.413-4 52.034-4.15 72.968 8.824 32.765 20.302 35.948 53.492 35.948 53.492 25.51 17.57 47.434 5.872 47.434 5.872a41.988 41.988 0 01-12.893 21.253 49.953 49.953 0 01-12.712 8.132s-.218.1-.64.273a53.484 53.484 0 01-13.954 4.067c52.643 19.35 77.098-16.983 77.098-16.983a24.5 24.5 0 01.066 1.919c.262 27.248-32.928 70.406-32.928 70.406z"/><path fill="#fcc4a7" d="M2265.058 771.74a17.199 17.199 0 005.896-2.346c9.148-5.907 14.843-15.408 19.31-25.22 4.89-10.738 8.228-22.216 10.913-33.706.45-1.926 5.806-20.99 4.205-22.125a85.416 85.416 0 01-12.471-11.014l4.922-16.785 183.076 59.626s-13.992 85.384-26.613 117.687c-12.62 32.303-70.033 73.56-76.857 77.371-14.107 7.913-38.287 2.331-50.679-5.9-16.522-10.975-29.323-27.533-41.468-43.069-1.103-1.41-20.23-30.915-18.76-31.293-2.038.524-8.348-4.26-9.973-5.234-6.79-4.074-13.37-8.934-18.533-15.043-5.437-6.433-9.218-14.405-8.141-23.07.825-6.635 3.04-16.016 8.615-20.265 6.075-4.63 20.41-3.519 26.558.385"/><path fill="#8e554f" d="M2383.913 885.862l-.455 1.804s-.542-.191-1.567-.513a289.603 289.603 0 00-39.854-9.546 3.125 3.125 0 01.07-.651 7.142 7.142 0 01.83-2.505 11.588 11.588 0 012.093-2.664c.425-.42.879-.82 1.352-1.211.286-.22.553-.42.839-.65a23.133 23.133 0 016.874-3.27c6.41-1.597 14.787-.766 21.003 3.23.502.322.965.643 1.448.994a33.2 33.2 0 012.019 1.757 18.718 18.718 0 014.743 7.382 13.033 13.033 0 01.605 5.843z"/><path fill="#f98282" d="M2381.89 887.153a289.603 289.603 0 00-39.853-9.546 3.125 3.125 0 01.07-.651 7.142 7.142 0 01.83-2.505 11.588 11.588 0 012.093-2.664c.02 0 .04-.01.06-.01 14.376-3.412 28.187 4.772 36.8 15.376z"/><path fill="#a55316" d="M2309.253 751.035a74.242 74.242 0 0131.283-12.531 60.832 60.832 0 0125.723 1.774c3.197.933 10.361 2.038 8.836 7.07-1.35 4.448-7.504 3.377-10.856 2.71-5.565-1.106-11.302-2.253-16.967-2.98-13.026-1.672-25.714-.639-38.02 3.957zm151.25 40.722a4.545 4.545 0 01-1.15 2.36c-4.66-4.926-9-9.73-14.646-13.64-3.922-2.698-8.117-5.168-12.198-7.559-2.455-1.436-6.874-4.183-5.143-8.024 1.963-4.327 7.034-1.03 9.555.14a47.14 47.14 0 0116.896 13.347c2.13 2.72 7.442 8.86 6.686 13.376z"/><ellipse cx="2347.109" cy="783.676" fill="#243d42" rx="7.754" ry="7.884"/><path fill="#243d42" d="M2443.678 807.465a7.774 7.774 0 01-8.812 6.636 7.866 7.866 0 01-6.527-8.96 7.775 7.775 0 018.813-6.636 7.866 7.866 0 016.526 8.96z"/><path fill="#fb9a77" d="M2397.305 796.68c1.69 9.47 2.289 19.182.449 28.913-1.048 4.761-2.603 9.858-6.525 13.586a10.919 10.919 0 01-7.118 3.074 14.042 14.042 0 01-7.066-1.8c4.724.727 9.39-.135 11.933-3.527 2.626-3.244 3.922-7.708 4.813-12.163 1.853-9.017 2.025-18.53 3.514-28.082z"/><path fill="#243d42" d="M2359.344 781.365a.81.81 0 01-.496-.274c-.09-.105-9.21-10.37-28.563-7.813a.834.834 0 01-.21-1.654c20.277-2.678 29.616 7.916 30.007 8.369a.843.843 0 01-.077 1.175.812.812 0 01-.661.197zm87.965 20.885a.811.811 0 01-.457-.235c-.083-.082-8.217-8.13-24.205-4.96a.822.822 0 01-.961-.659.833.833 0 01.648-.977c16.9-3.348 25.33 5.06 25.68 5.421a.844.844 0 01-.003 1.177.813.813 0 01-.702.233z"/><ellipse cx="2440.478" cy="838.105" fill="#fbb192" rx="9.654" ry="21.138" transform="rotate(-73.196 2440.479 838.105)"/><ellipse cx="2326.729" cy="807.291" fill="#fbb192" rx="9.654" ry="21.138" transform="rotate(-73.197 2326.73 807.291)"/><path fill="#fb9a77" d="M2264.351 787.981s-10.692-13.867-18.483-9.917c-7.79 3.95-8.785 23.74-.035 31.668 3.173 2.874 7.084 6.25 11.62 6.915 5.91.865 6.122-1.84 7.027-6.789.96-5.247 4.248-17.416-.129-21.877z" opacity=".35"/><path fill="#a8531a" d="M2531.685 698.445s-8.804 49.017-40.188 70.283c-31.181 21.126-101.888-43.623-102.8-44.461.384.472 12.734 15.587 25.463 27.096 0 0-28.466 11.204-100.466-48.94 0 0-.765 2.502-2.1 6.594-5.706 17.499-21.801 64.147-33.07 69.855 0 0-9.593-9.575-17.733-17.627-1.572-1.565-3.104-3.069-4.49-4.436-8.554-8.414 36.658-109.263 36.658-109.263s77.579-3.333 81.02-.154 94.465 61.51 94.465 61.51 42.824 23.238 63.24-10.457zM2341.16 573.057s-64.164 14.53-50.844 71.661l27.477-2.103s-30.456-36.62 23.367-69.558z"/><path fill="#9b4d18" d="M2311.595 709.017c-5.707 17.499-21.802 64.146-33.07 69.855 0 0-9.594-9.575-17.734-17.627a109.706 109.706 0 0048.01-61.246 90.475 90.475 0 012.794 9.018zm172.19-11.725s5.071-3.34 12.712-8.132a49.953 49.953 0 01-12.712 8.132z"/><path fill="#9b4d18" d="M2546.355 686.568c-68.95 75.38-144.098 1.877-144.098 1.877 36.684 25.612 75.461 11.323 80.887 9.12a53.484 53.484 0 01-13.953 4.067c52.643 19.35 77.098-16.983 77.098-16.983a24.5 24.5 0 01.066 1.919z"/><path fill="#a8531a" d="M2292.558 621.891c-5.444-4.67-13.124-6.356-20.368-5.43a34.324 34.324 0 00-10.545 3.029 45.17 45.17 0 00-9.322 6.037c-5.757 4.767-10.484 10.735-14.714 16.986a136.624 136.624 0 00-11.103 19.772 110.146 110.146 0 00-4.182 10.549 99.946 99.946 0 00-3.077 10.924 98.333 98.333 0 00-1.81 11.207 90.523 90.523 0 00-.349 11.351 81.63 81.63 0 001.193 11.303 72.902 72.902 0 002.782 11.03 68.483 68.483 0 0010.557 20.097 68.667 68.667 0 01-10.903-19.98 73.396 73.396 0 01-2.975-11.047 82.304 82.304 0 01-1.383-11.37c-.831-15.317 2.734-30.64 8.814-44.656a138.278 138.278 0 0110.915-20.187c4.187-6.4 8.91-12.59 14.824-17.653a47.453 47.453 0 019.698-6.496 36.779 36.779 0 0111.256-3.43 35.44 35.44 0 015.919-.306 31.29 31.29 0 015.906.796 26.075 26.075 0 0110.755 5.25zm29.761-11.853a96.407 96.407 0 0150.21-16.147 98.463 98.463 0 0113.306.444 99.67 99.67 0 0113.102 2.29 96.584 96.584 0 0124.64 9.757 93.137 93.137 0 0111.074 7.298c3.528 2.679 6.829 5.607 10.082 8.564 6.524 5.906 12.73 12.136 19.526 17.667a80.38 80.38 0 0010.753 7.502 56.126 56.126 0 0012.036 5.156 67.276 67.276 0 0026.085 1.829 67.455 67.455 0 01-26.188-1.468 56.583 56.583 0 01-12.209-5.026 81.006 81.006 0 01-10.947-7.406c-6.92-5.47-13.224-11.624-19.808-17.415-3.288-2.904-6.61-5.765-10.117-8.354a91.69 91.69 0 00-11.01-7.046 94.93 94.93 0 00-24.344-9.26 97.8 97.8 0 00-12.87-2.072 96.385 96.385 0 00-13.021-.258 93.843 93.843 0 00-48.664 16.361z"/><path fill="#243d42" d="M2376.961 1506.239s-28.371 4.967-70.41 32.177a394.45 394.45 0 00-56.964 45.278q-8.592 8.163-17.471 17.472c-41.719 43.87-120.066 46.375-185.01 38.87q-4.848-11.071-9.116-21.562-.773-1.89-1.522-3.756-1.866-4.616-3.609-9.109c-.655-1.677-1.301-3.355-1.94-5.008-.63-1.653-1.26-3.298-1.865-4.926-.278-.729-.548-1.449-.818-2.169q-3.29-8.826-6.179-17.111a69.584 69.584 0 007.152 2.021s90.877 12.12 175.23-12.61c8.233-2.406 16.4-5.172 24.412-8.331a219.938 219.938 0 0045.753-24.223 285.878 285.878 0 0121.048-13.429 306.247 306.247 0 0168.486-29.01z"/><path fill="#ffbf9c" d="M2555.89 1351.483q-.147 4.382-.368 8.7a783.49 783.49 0 01-14.083 112.07c-.761 3.732-1.22 5.753-1.22 5.753-21.407 29.878-92.398 76.294-152.57 112.333l-.016.017c-34.403 20.605-65.255 37.823-81.294 46.628-.131.074-.262.148-.393.23a2.723 2.723 0 00-.294.171 23.803 23.803 0 00-11.53 17.996c-.492 4.615-1.31 10.81-2.677 19.026-3.069 18.412-17.643 49.714-24.746 64.215a91.03 91.03 0 0110.704-15.344 11.706 11.706 0 0116.988-.745c.213.197.418.41.614.63l5.033 5.663s-20.05 42.963-24.96 52.783-16.366 1.637-29.46 0-79.378-45.009-64.648-84.289 75.287-89.198 75.287-89.198c10.409-14.714 24.656-32.235 40.573-50.623q7.242-8.371 14.877-16.923c46.719-52.365 101.228-106.932 115.778-121.392a.248.248 0 00.066-.065c2.373-2.349 3.666-3.625 3.666-3.625l-.008-.164-1.277-30.238-1.686-39.828-.752-17.832-.205-4.91-4.108-13.911a1.734 1.734 0 01-.066-.336c-.196-1.407.974-2.897 3.241-4.443.188-.131.385-.254.59-.385 4.73-2.995 13.453-6.17 24.19-9.296l.515-.148q2.037-.589 4.092-1.153c.85-.238 1.71-.475 2.569-.696 1.195-.32 2.406-.638 3.625-.958.401-.106.802-.212 1.203-.31 7.095-1.825 14.657-3.61 22.267-5.303q2.21-.491 4.42-.966 2.282-.503 4.565-.982c1.408-.303 2.824-.597 4.231-.892q3.965-.835 7.832-1.604c.172-.04.335-.074.507-.106.287-.058.581-.115.868-.172a1676.186 1676.186 0 0130.27-5.761c1.636-.295 3.265-.581 4.902-.868l4.893-.85c.18-.042.36-.066.54-.09.483-.083.925-.156 1.326-.23.884-.155 1.776-.303 2.66-.442a.239.239 0 01.073-.016 411.865 411.865 0 013.7 50.843c.138 9.427.016 18.814-.304 28.036z"/><path fill="#fbb192" d="M2294.391 1722.533c-6.03-2.864-25.95 21.842-25.95 21.842s-7.683 8.183-16.685 0 7.365-21.277 11.457-49.919c2.946-20.614 24.124-41.236 35.76-51.17a23.767 23.767 0 00-4.852 12.095c-.49 4.615-1.31 10.81-2.676 19.026-3.069 18.412-17.643 49.714-24.746 64.215a91.03 91.03 0 0110.704-15.344 11.706 11.706 0 0116.988-.745zm261.5-371.05q-.148 4.382-.369 8.7c-23.723-3.749-47.561-6.54-71.547-6.441-8.78.033-17.84.524-25.802 4.23-11.94 5.557-19.362 17.227-28.24 27.12l-1.687-39.828-.752-17.832-.205-4.91-4.108-13.911a1.734 1.734 0 01-.066-.336c-.196-1.407.974-2.897 3.241-4.444.188-.13.385-.253.59-.384 6.096-5 16.759-7.177 24.19-9.296l.515-.148q2.037-.589 4.092-1.154c.85-.237 1.71-.474 2.569-.695 1.192-.32 2.404-.64 3.628-.957 7.78-2.046 15.613-3.886 23.467-5.614q2.21-.491 4.42-.966 2.282-.503 4.565-.982c1.408-.303 2.824-.597 4.231-.892q3.965-.835 7.832-1.604c.172-.04.335-.074.507-.106q17.97-3.658 36.04-6.8l4.893-.852c.18-.04.36-.065.54-.09.442-.082.884-.155 1.326-.229.884-.155 1.776-.303 2.66-.442a.239.239 0 01.073-.016 411.865 411.865 0 013.7 50.843c.138 9.427.016 18.814-.304 28.036z"/><path fill="#fb9a77" d="M2556.193 1323.447q-.086 6.285-.303 12.488c-22.864-.671-45.925-10.418-65.254-23.42-5.343-3.602-11.08-7.611-17.512-7.292-5.59.286-10.41 3.805-14.992 7.013-7.169 5.008-14.738 10.098-22.66 13.838-3.969 1.874-6.358 2.226-7.978 1.358l-.205-4.91-4.108-13.911a1.734 1.734 0 01-.066-.336 13.12 13.12 0 013.83-4.828c6.097-5 16.76-7.177 24.19-9.296l.516-.148q2.037-.589 4.092-1.154c.85-.237 1.71-.474 2.569-.695 1.192-.32 2.404-.64 3.628-.957 7.78-2.046 15.613-3.886 23.467-5.614q2.21-.491 4.42-.966 2.282-.503 4.565-.982c1.408-.303 2.824-.597 4.231-.892q3.965-.835 7.832-1.604c.172-.04.335-.074.507-.106q17.97-3.658 36.04-6.8l4.893-.852c.18-.04.36-.065.54-.09.442-.082.884-.155 1.326-.229.884-.155 1.776-.303 2.66-.442a.239.239 0 01.073-.016 411.865 411.865 0 013.7 50.843z" opacity=".36"/><path fill="#fbb192" d="M2541.439 1472.253c-.761 3.732-1.22 5.753-1.22 5.753-21.407 29.878-92.398 76.294-152.57 112.333 67.946-48.748 153.79-118.086 153.79-118.086z"/><path fill="#ffbf9c" d="M2568.861 1333.98a15.53 15.53 0 01-21.023 8.264 93.91 93.91 0 01-16.22-10.024c-15.016-11.236-29.566-26.866-38.96-37.775a367.815 367.815 0 01-7.112-8.502c-1.554-1.923-2.618-3.298-3.118-3.936-.016-.017-.024-.025-.024-.033-.188-.238-.286-.368-.286-.368l.073.016 3.503.712 27.831 5.687 3.74.77c.008 0 .008.008.016 0l.074.016 12.103 2.471 9.558 1.956 10.107 2.062 6.366 12.488 4.69 9.182 6.17 12.079z"/><path fill="#fbb192" d="M2566.349 1329.044c-5.426 4.428-15.81 8.446-34.73 3.176-15.017-11.236-29.567-26.866-38.961-37.775a78.406 78.406 0 01-7.103-7.889c-.009-.204-.009-.409-.009-.613q0-1.83.148-3.61a63.034 63.034 0 013.854-16.988c.278-.753.557-1.48.843-2.168a63.16 63.16 0 014.41-8.986l44.215 39.043 16.473 14.55 7.153 6.31q-1.289 1.534-2.463 2.872z"/><path fill="#ffbf9c" d="M2611.415 1250.509s-31.588 43.282-48.773 63.585q-1.289 1.534-2.463 2.872c-2.07 2.365-3.855 4.272-5.23 5.556-9.68 9.035-43.306-9.427-62.291-28.077a78.406 78.406 0 01-7.103-7.889 43.265 43.265 0 01-3.127-4.55c-.016-.016-.024-.024-.024-.032-.074-.123-.147-.238-.213-.352a33.244 33.244 0 01-.892-1.653c-10.638-21.277-15.548-15.548-15.548-15.548s-6.424 2.806-17.464 7.504a4182.241 4182.241 0 01-30.36 12.782c-78.642 32.709-230.32 92.906-268.054 86.916-13.232-2.095-26.784-11.956-39.632-25.467a260.192 260.192 0 01-25.434-32.112c8.372-34.59 29.256-87.16 89.322-110.688a240.795 240.795 0 015.703 9.387c4.6 7.987 9.174 17.185 10.958 24.672 0 0 68.838-34.942 199.011-43.2 21.162-1.35 43.945-1.988 68.315-1.66q20.278.282 42.005 1.489s102.292 31.915 111.294 56.465z"/><path fill="#fbb192" d="M2482.363 1254.6a3.305 3.305 0 00.4.706c.186.248.363.495.57.733.393.483.82.947 1.246 1.409.845.93 1.737 1.825 2.63 2.715a133.09 133.09 0 005.554 5.143q2.823 2.516 5.758 4.892a143.195 143.195 0 005.918 4.656 86.44 86.44 0 006.208 4.197c2.108 1.32 4.154 2.697 6.183 4.093a128.252 128.252 0 0012.684 7.895l-.103.48a23.125 23.125 0 01-7.85-1.123 41.423 41.423 0 01-7.277-3.054 40.63 40.63 0 01-6.482-4.35c-2.012-1.645-3.92-3.392-5.85-5.097q-2.888-2.564-5.62-5.275-2.716-2.729-5.3-5.573a135.04 135.04 0 01-4.95-5.875c-.79-1.01-1.576-2.02-2.314-3.073a30.997 30.997 0 01-1.06-1.619c-.174-.27-.328-.564-.484-.851a2.927 2.927 0 01-.352-1.028z"/><path fill="#fbb192" d="M2529.415 1308.792a59.495 59.495 0 01-5.743-4.497q-1.363-1.218-2.676-2.51-1.289-1.314-2.51-2.72c-1.605-1.867-3.543-3.685-4.33-6.242a12.462 12.462 0 01-.68-3.975 6.892 6.892 0 011.131-3.996l.488.054a28.579 28.579 0 001.75 3.105l1.765 2.747a20.968 20.968 0 011.55 2.913 24.73 24.73 0 001.509 3.093 56.085 56.085 0 001.858 2.958q.949 1.484 1.975 2.937c1.348 1.952 2.781 3.866 4.245 5.77zm-81.128-36.867a4182.241 4182.241 0 01-30.36 12.782l-.049-.237c-4.026-20.131-21.808-72.17-28.077-90.255 21.162-1.35 43.945-1.988 68.315-1.66l3.952.261c7.815 32.832-11.988 75.369-13.78 79.109z"/><path fill="#404aa9" d="M2386.72 1172.6l.907 14.522a6.093 6.093 0 006.459 5.704c14.38-.895 50.564-2.848 67.627-1.043a6.091 6.091 0 006.648-6.943c-1.009-7.087-3.554-16.32-9.975-17.801-9.15-2.112-49.77-2.407-66.17-.887a6.085 6.085 0 00-5.496 6.449z"/><path fill="#404aa9" d="M2453.28 1241.744a226.675 226.675 0 01-5.344 30.336l-29.952 12.603a94.477 94.477 0 001.686-21.932c-.515-22.684-6.178-48.724-9.386-61.817-1.293-5.286-2.193-8.462-2.193-8.462l7.365-.769 32.291-3.388c.467.909.9 1.842 1.31 2.79a56.615 56.615 0 012.937 9.076c3.086 13.004 2.701 28.372 1.285 41.563z"/><path fill="#303f94" d="M2451.994 1200.181c-12.405-.393-28.682.14-41.71.753-1.293-5.286-2.193-8.462-2.193-8.462l39.656-4.157a52.485 52.485 0 014.247 11.866zm1.285 41.563a226.675 226.675 0 01-5.343 30.336l-29.952 12.603a94.477 94.477 0 001.686-21.932 334.523 334.523 0 0033.61-21.007z"/><path fill="#fbb192" d="M2311.707 1540.576c2.897-2.422 5.909-4.926 9.018-7.48-8.78 9.109-16.923 17.448-23.895 24.403q7.242-8.371 14.877-16.923zm-5.76 96.638a2.723 2.723 0 00-.296.171q.037-.11.295-.171z"/><path fill="#ed4343" d="M2180.56 1201q-3.289 1.116-6.431 2.356c-60.066 23.527-80.95 76.097-89.322 110.688-5.065 20.974-5.54 35.336-7.357 32.62-4.91-7.366-39.28-73.651-82.652-127.661l109.608-161.957c.72 4.083 76.155 143.953 76.155 143.953zm-76.105-144.028l-.049.074q-.024-.123.05-.074z"/><path fill="#fbb192" d="M2179.832 1212.743c-3.24 3.306-7.52 6.03-12.013 9.828-21.743 18.355-37.398 43.257-47.488 69.69-6.538 17.119-10.86 35.752-10.09 53.895a260.192 260.192 0 01-25.434-32.112c8.372-34.59 29.256-87.16 89.322-110.688a240.795 240.795 0 015.703 9.387z"/><path fill="#a12c34" d="M2401.274 968.608c-19.23 29.755-34.493 31.269-104.51 42.538-71.195 11.456-107.807-89.027-107.807-89.027s10.213.605 26.187 1.84c1.08 2.202 26.39 53.054 79.23 63.471 54.011 10.655 76.859-23.748 76.859-23.748s.065.008.205.016c1.579.115 12.275 1.023 29.836 4.91z"/><path fill="#243d42" d="M2571.725 1794.293s-64.975 16.571-88.486 52.996c15.72-25.377 30.4-46.973 42.25-60.77 0 0-.22-.115-.646-.327l.237-.082s29.46 9.001 46.645 8.183z"/><path fill="#243d42" d="M2522.028 1952.142c-8.92 41.089-11.719 83.2-11.08 125.295-31.204 37.595-55.574 65.606-64.06 75.287-2.103 2.406-3.232 3.683-3.232 3.683l-3.274-2.79-15.22-12.963c10.171-76.474 20.957-143.422 29.541-163.872 5.05-12.021 2.963-38.42-4.533-73.626v-.008a2172.7 2172.7 0 0114.288-24.705q2.025-3.437 4.034-6.825a1572.946 1572.946 0 0112.832-21.244c.262-.418.523-.843.793-1.293.36-.606.729-1.203 1.122-1.792 15.654-25.27 30.278-46.793 42.103-60.598a430.596 430.596 0 0073.077 11.023c-39.493 42.643-64.067 97.635-76.391 154.428z" opacity=".46"/></svg>